<?xml version="1.0" encoding="UTF-8" standalone="no"?>
<!DOCTYPE svg PUBLIC "-//W3C//DTD SVG 1.1//EN"
 "http://www.w3.org/Graphics/SVG/1.1/DTD/svg11.dtd">
<!-- Generated by graphviz version 12.2.1 (20241206.2353)
 -->
<!-- Pages: 1 -->
<svg width="608pt" height="1424pt"
 viewBox="0.00 0.00 608.01 1424.00" xmlns="http://www.w3.org/2000/svg" xmlns:xlink="http://www.w3.org/1999/xlink">
<g id="graph0" class="graph" transform="scale(1 1) rotate(0) translate(4 1420)">
<g id="a_graph0"><a xlink:title=" ">
<polygon fill="white" stroke="none" points="-4,4 -4,-1420 604.01,-1420 604.01,4 -4,4"/>
</a>
</g>
<!-- 1 -->
<g id="node1" class="node">
<title>1</title>
<polygon fill="#fa1f01" stroke="#fa1f01" points="395.88,-1416 346.13,-1416 346.13,-1372 395.88,-1372 395.88,-1416"/>
<text text-anchor="middle" x="371.01" y="-1402.5" font-family="Arial" font-size="10.00" fill="#ffffff">main</text>
<text text-anchor="middle" x="371.01" y="-1390.5" font-family="Arial" font-size="10.00" fill="#ffffff">96.94%</text>
<text text-anchor="middle" x="371.01" y="-1378.5" font-family="Arial" font-size="10.00" fill="#ffffff">(0.00%)</text>
</g>
<!-- 3 -->
<g id="node2" class="node">
<title>3</title>
<polygon fill="#f82f01" stroke="#f82f01" points="366.88,-1330 317.13,-1330 317.13,-1274 366.88,-1274 366.88,-1330"/>
<text text-anchor="middle" x="342.01" y="-1316.5" font-family="Arial" font-size="10.00" fill="#ffffff">runFile</text>
<text text-anchor="middle" x="342.01" y="-1304.5" font-family="Arial" font-size="10.00" fill="#ffffff">95.31%</text>
<text text-anchor="middle" x="342.01" y="-1292.5" font-family="Arial" font-size="10.00" fill="#ffffff">(0.00%)</text>
<text text-anchor="middle" x="342.01" y="-1280.5" font-family="Arial" font-size="10.00" fill="#ffffff">1×</text>
</g>
<!-- 1&#45;&gt;3 -->
<g id="edge1" class="edge">
<title>1&#45;&gt;3</title>
<path fill="none" stroke="#f82f01" stroke-width="3.81" d="M357.89,-1371.77C356.44,-1368.89 355.09,-1365.92 354.01,-1363 351.93,-1357.42 350.18,-1351.4 348.73,-1345.41"/>
<polygon fill="#f82f01" stroke="#f82f01" stroke-width="3.81" points="352.13,-1344.93 346.77,-1336.03 345.41,-1346.33 352.13,-1344.93"/>
<text text-anchor="middle" x="370.51" y="-1353.5" font-family="Arial" font-size="10.00" fill="#f82f01">95.31%</text>
<text text-anchor="middle" x="370.51" y="-1341.5" font-family="Arial" font-size="10.00" fill="#f82f01">1×</text>
</g>
<!-- 26 -->
<g id="node3" class="node">
<title>26</title>
<polygon fill="#0d1475" stroke="#0d1475" points="426.88,-1330 377.13,-1330 377.13,-1274 426.88,-1274 426.88,-1330"/>
<text text-anchor="middle" x="402.01" y="-1316.5" font-family="Arial" font-size="10.00" fill="#ffffff">freeVM</text>
<text text-anchor="middle" x="402.01" y="-1304.5" font-family="Arial" font-size="10.00" fill="#ffffff">1.63%</text>
<text text-anchor="middle" x="402.01" y="-1292.5" font-family="Arial" font-size="10.00" fill="#ffffff">(1.02%)</text>
<text text-anchor="middle" x="402.01" y="-1280.5" font-family="Arial" font-size="10.00" fill="#ffffff">1×</text>
</g>
<!-- 1&#45;&gt;26 -->
<g id="edge2" class="edge">
<title>1&#45;&gt;26</title>
<path fill="none" stroke="#0d1475" stroke-width="0.5" d="M381.52,-1371.55C382.77,-1368.7 383.96,-1365.8 385.01,-1363 388.41,-1353.86 391.52,-1343.71 394.13,-1334.41"/>
<polygon fill="#0d1475" stroke="#0d1475" stroke-width="0.5" points="395.26,-1334.91 395.01,-1331.21 392.9,-1334.26 395.26,-1334.91"/>
<text text-anchor="middle" x="406.34" y="-1353.5" font-family="Arial" font-size="10.00" fill="#0d1475">1.63%</text>
<text text-anchor="middle" x="406.34" y="-1341.5" font-family="Arial" font-size="10.00" fill="#0d1475">1×</text>
</g>
<!-- 2 -->
<g id="node4" class="node">
<title>2</title>
<polygon fill="#f82f01" stroke="#f82f01" points="361.63,-1232 310.38,-1232 310.38,-1176 361.63,-1176 361.63,-1232"/>
<text text-anchor="middle" x="336.01" y="-1218.5" font-family="Arial" font-size="10.00" fill="#ffffff">interpret</text>
<text text-anchor="middle" x="336.01" y="-1206.5" font-family="Arial" font-size="10.00" fill="#ffffff">95.31%</text>
<text text-anchor="middle" x="336.01" y="-1194.5" font-family="Arial" font-size="10.00" fill="#ffffff">(0.00%)</text>
<text text-anchor="middle" x="336.01" y="-1182.5" font-family="Arial" font-size="10.00" fill="#ffffff">1×</text>
</g>
<!-- 3&#45;&gt;2 -->
<g id="edge4" class="edge">
<title>3&#45;&gt;2</title>
<path fill="none" stroke="#f82f01" stroke-width="3.81" d="M340.3,-1273.75C339.8,-1265.64 339.23,-1256.56 338.68,-1247.71"/>
<polygon fill="#f82f01" stroke="#f82f01" stroke-width="3.81" points="342.11,-1247.64 338.07,-1238.08 335.26,-1248.07 342.11,-1247.64"/>
<text text-anchor="middle" x="356.22" y="-1255.5" font-family="Arial" font-size="10.00" fill="#f82f01">95.31%</text>
<text text-anchor="middle" x="356.22" y="-1243.5" font-family="Arial" font-size="10.00" fill="#f82f01">1×</text>
</g>
<!-- 29 -->
<g id="node30" class="node">
<title>29</title>
<polygon fill="#0d0f74" stroke="#0d0f74" points="437.13,-1232 370.88,-1232 370.88,-1176 437.13,-1176 437.13,-1232"/>
<text text-anchor="middle" x="404.01" y="-1218.5" font-family="Arial" font-size="10.00" fill="#ffffff">freeObjects</text>
<text text-anchor="middle" x="404.01" y="-1206.5" font-family="Arial" font-size="10.00" fill="#ffffff">0.61%</text>
<text text-anchor="middle" x="404.01" y="-1194.5" font-family="Arial" font-size="10.00" fill="#ffffff">(0.51%)</text>
<text text-anchor="middle" x="404.01" y="-1182.5" font-family="Arial" font-size="10.00" fill="#ffffff">1×</text>
</g>
<!-- 26&#45;&gt;29 -->
<g id="edge35" class="edge">
<title>26&#45;&gt;29</title>
<path fill="none" stroke="#0d0f74" stroke-width="0.5" d="M402.57,-1273.75C402.82,-1262.09 403.1,-1248.42 403.35,-1236.35"/>
<polygon fill="#0d0f74" stroke="#0d0f74" stroke-width="0.5" points="404.57,-1236.6 403.42,-1233.08 402.12,-1236.55 404.57,-1236.6"/>
<text text-anchor="middle" x="417.12" y="-1255.5" font-family="Arial" font-size="10.00" fill="#0d0f74">0.61%</text>
<text text-anchor="middle" x="417.12" y="-1243.5" font-family="Arial" font-size="10.00" fill="#0d0f74">1×</text>
</g>
<!-- 4 -->
<g id="node5" class="node">
<title>4</title>
<polygon fill="#f82f01" stroke="#f82f01" points="363.51,-1134 308.51,-1134 308.51,-1078 363.51,-1078 363.51,-1134"/>
<text text-anchor="middle" x="336.01" y="-1120.5" font-family="Arial" font-size="10.00" fill="#ffffff">run</text>
<text text-anchor="middle" x="336.01" y="-1108.5" font-family="Arial" font-size="10.00" fill="#ffffff">95.31%</text>
<text text-anchor="middle" x="336.01" y="-1096.5" font-family="Arial" font-size="10.00" fill="#ffffff">(27.55%)</text>
<text text-anchor="middle" x="336.01" y="-1084.5" font-family="Arial" font-size="10.00" fill="#ffffff">1×</text>
</g>
<!-- 2&#45;&gt;4 -->
<g id="edge3" class="edge">
<title>2&#45;&gt;4</title>
<path fill="none" stroke="#f82f01" stroke-width="3.81" d="M336.01,-1175.75C336.01,-1167.64 336.01,-1158.56 336.01,-1149.71"/>
<polygon fill="#f82f01" stroke="#f82f01" stroke-width="3.81" points="339.44,-1149.89 336.01,-1140.09 332.58,-1149.89 339.44,-1149.89"/>
<text text-anchor="middle" x="352.51" y="-1157.5" font-family="Arial" font-size="10.00" fill="#f82f01">95.31%</text>
<text text-anchor="middle" x="352.51" y="-1145.5" font-family="Arial" font-size="10.00" fill="#f82f01">1×</text>
</g>
<!-- 5 -->
<g id="node6" class="node">
<title>5</title>
<polygon fill="#0c9b7b" stroke="#0c9b7b" points="397.01,-840 333.01,-840 333.01,-784 397.01,-784 397.01,-840"/>
<text text-anchor="middle" x="365.01" y="-826.5" font-family="Arial" font-size="10.00" fill="#ffffff">tableSet</text>
<text text-anchor="middle" x="365.01" y="-814.5" font-family="Arial" font-size="10.00" fill="#ffffff">30.48%</text>
<text text-anchor="middle" x="365.01" y="-802.5" font-family="Arial" font-size="10.00" fill="#ffffff">(3.57%)</text>
<text text-anchor="middle" x="365.01" y="-790.5" font-family="Arial" font-size="10.00" fill="#ffffff">25384387×</text>
</g>
<!-- 4&#45;&gt;5 -->
<g id="edge5" class="edge">
<title>4&#45;&gt;5</title>
<path fill="none" stroke="#0c9b7b" stroke-width="1.22" d="M345.53,-1077.82C349.51,-1065.25 353.72,-1050.03 356.01,-1036 366.74,-970.02 367.09,-891.69 366.18,-847.63"/>
<polygon fill="#0c9b7b" stroke="#0c9b7b" stroke-width="1.22" points="368.11,-847.63 366.06,-842.18 364.26,-847.72 368.11,-847.63"/>
<text text-anchor="middle" x="388.74" y="-961.5" font-family="Arial" font-size="10.00" fill="#0c9b7b">30.48%</text>
<text text-anchor="middle" x="388.74" y="-949.5" font-family="Arial" font-size="10.00" fill="#0c9b7b">25384361×</text>
</g>
<!-- 12 -->
<g id="node7" class="node">
<title>12</title>
<polygon fill="#0d4883" stroke="#0d4883" points="338.38,-938 279.63,-938 279.63,-882 338.38,-882 338.38,-938"/>
<text text-anchor="middle" x="309.01" y="-924.5" font-family="Arial" font-size="10.00" fill="#ffffff">callValue</text>
<text text-anchor="middle" x="309.01" y="-912.5" font-family="Arial" font-size="10.00" fill="#ffffff">12.55%</text>
<text text-anchor="middle" x="309.01" y="-900.5" font-family="Arial" font-size="10.00" fill="#ffffff">(0.51%)</text>
<text text-anchor="middle" x="309.01" y="-888.5" font-family="Arial" font-size="10.00" fill="#ffffff">6346080×</text>
</g>
<!-- 4&#45;&gt;12 -->
<g id="edge6" class="edge">
<title>4&#45;&gt;12</title>
<path fill="none" stroke="#0d4883" stroke-width="0.5" d="M326.07,-1077.5C321.99,-1065.01 317.66,-1049.93 315.26,-1036 309.78,-1004.29 308.55,-967.45 308.48,-942.01"/>
<polygon fill="#0d4883" stroke="#0d4883" stroke-width="0.5" points="309.71,-942.29 308.48,-938.79 307.26,-942.29 309.71,-942.29"/>
<text text-anchor="middle" x="336.63" y="-1010.5" font-family="Arial" font-size="10.00" fill="#0d4883">12.55%</text>
<text text-anchor="middle" x="336.63" y="-998.5" font-family="Arial" font-size="10.00" fill="#0d4883">6346080×</text>
</g>
<!-- 13 -->
<g id="node8" class="node">
<title>13</title>
<polygon fill="#0d397f" stroke="#0d397f" points="185.38,-1036 126.63,-1036 126.63,-980 185.38,-980 185.38,-1036"/>
<text text-anchor="middle" x="156.01" y="-1022.5" font-family="Arial" font-size="10.00" fill="#ffffff">invoke</text>
<text text-anchor="middle" x="156.01" y="-1010.5" font-family="Arial" font-size="10.00" fill="#ffffff">9.61%</text>
<text text-anchor="middle" x="156.01" y="-998.5" font-family="Arial" font-size="10.00" fill="#ffffff">(4.59%)</text>
<text text-anchor="middle" x="156.01" y="-986.5" font-family="Arial" font-size="10.00" fill="#ffffff">6346078×</text>
</g>
<!-- 4&#45;&gt;13 -->
<g id="edge7" class="edge">
<title>4&#45;&gt;13</title>
<path fill="none" stroke="#0d397f" stroke-width="0.5" d="M308.11,-1104.93C275.8,-1103.46 222.51,-1096.59 187.26,-1069 177.86,-1061.65 171.01,-1050.69 166.15,-1040.15"/>
<polygon fill="#0d397f" stroke="#0d397f" stroke-width="0.5" points="167.29,-1039.69 164.76,-1036.98 165.05,-1040.68 167.29,-1039.69"/>
<text text-anchor="middle" x="208.63" y="-1059.5" font-family="Arial" font-size="10.00" fill="#0d397f">9.61%</text>
<text text-anchor="middle" x="208.63" y="-1047.5" font-family="Arial" font-size="10.00" fill="#0d397f">6346078×</text>
</g>
<!-- 17 -->
<g id="node9" class="node">
<title>17</title>
<polygon fill="#0d357e" stroke="#0d357e" points="113.01,-840 49.01,-840 49.01,-784 113.01,-784 113.01,-840"/>
<text text-anchor="middle" x="81.01" y="-826.5" font-family="Arial" font-size="10.00" fill="#ffffff">tableGet</text>
<text text-anchor="middle" x="81.01" y="-814.5" font-family="Arial" font-size="10.00" fill="#ffffff">8.91%</text>
<text text-anchor="middle" x="81.01" y="-802.5" font-family="Arial" font-size="10.00" fill="#ffffff">(3.06%)</text>
<text text-anchor="middle" x="81.01" y="-790.5" font-family="Arial" font-size="10.00" fill="#ffffff">44444497×</text>
</g>
<!-- 4&#45;&gt;17 -->
<g id="edge8" class="edge">
<title>4&#45;&gt;17</title>
<path fill="none" stroke="#0d2379" stroke-width="0.5" d="M308.23,-1104.21C240.72,-1100.55 69.11,-1080.43 8.01,-971 -15.97,-928.06 20.04,-875.86 49.46,-843.53"/>
<polygon fill="#0d2379" stroke="#0d2379" stroke-width="0.5" points="50.3,-844.42 51.77,-841.02 48.5,-842.76 50.3,-844.42"/>
<text text-anchor="middle" x="32.01" y="-961.5" font-family="Arial" font-size="10.00" fill="#0d2379">5.09%</text>
<text text-anchor="middle" x="32.01" y="-949.5" font-family="Arial" font-size="10.00" fill="#0d2379">25406263×</text>
</g>
<!-- 20 -->
<g id="node10" class="node">
<title>20</title>
<polygon fill="#0d1e78" stroke="#0d1e78" points="270.63,-938 201.38,-938 201.38,-882 270.63,-882 270.63,-938"/>
<text text-anchor="middle" x="236.01" y="-924.5" font-family="Arial" font-size="10.00" fill="#ffffff">peek</text>
<text text-anchor="middle" x="236.01" y="-912.5" font-family="Arial" font-size="10.00" fill="#ffffff">4.08%</text>
<text text-anchor="middle" x="236.01" y="-900.5" font-family="Arial" font-size="10.00" fill="#ffffff">(4.08%)</text>
<text text-anchor="middle" x="236.01" y="-888.5" font-family="Arial" font-size="10.00" fill="#ffffff">142765137×</text>
</g>
<!-- 4&#45;&gt;20 -->
<g id="edge9" class="edge">
<title>4&#45;&gt;20</title>
<path fill="none" stroke="#0d1d78" stroke-width="0.5" d="M308.05,-1088.76C289.81,-1076.62 267.17,-1058.32 254.76,-1036 238.7,-1007.15 235.04,-969.04 234.75,-942.51"/>
<polygon fill="#0d1d78" stroke="#0d1d78" stroke-width="0.5" points="235.98,-942.61 234.74,-939.12 233.53,-942.62 235.98,-942.61"/>
<text text-anchor="middle" x="281.38" y="-1010.5" font-family="Arial" font-size="10.00" fill="#0d1d78">3.90%</text>
<text text-anchor="middle" x="281.38" y="-998.5" font-family="Arial" font-size="10.00" fill="#0d1d78">136419055×</text>
</g>
<!-- 21 -->
<g id="node11" class="node">
<title>21</title>
<polygon fill="#0d1c77" stroke="#0d1c77" points="448.63,-1036 379.38,-1036 379.38,-980 448.63,-980 448.63,-1036"/>
<text text-anchor="middle" x="414.01" y="-1022.5" font-family="Arial" font-size="10.00" fill="#ffffff">push</text>
<text text-anchor="middle" x="414.01" y="-1010.5" font-family="Arial" font-size="10.00" fill="#ffffff">3.57%</text>
<text text-anchor="middle" x="414.01" y="-998.5" font-family="Arial" font-size="10.00" fill="#ffffff">(3.57%)</text>
<text text-anchor="middle" x="414.01" y="-986.5" font-family="Arial" font-size="10.00" fill="#ffffff">209399137×</text>
</g>
<!-- 4&#45;&gt;21 -->
<g id="edge10" class="edge">
<title>4&#45;&gt;21</title>
<path fill="none" stroke="#0d1c77" stroke-width="0.5" d="M363.66,-1078.36C366.56,-1075.27 369.39,-1072.11 372.01,-1069 379.65,-1059.89 387.31,-1049.43 393.96,-1039.82"/>
<polygon fill="#0d1c77" stroke="#0d1c77" stroke-width="0.5" points="394.96,-1040.53 395.93,-1036.95 392.94,-1039.14 394.96,-1040.53"/>
<text text-anchor="middle" x="416.93" y="-1059.5" font-family="Arial" font-size="10.00" fill="#0d1c77">3.57%</text>
<text text-anchor="middle" x="416.93" y="-1047.5" font-family="Arial" font-size="10.00" fill="#0d1c77">209399017×</text>
</g>
<!-- 25 -->
<g id="node12" class="node">
<title>25</title>
<polygon fill="#0d1575" stroke="#0d1575" points="526.63,-1036 457.38,-1036 457.38,-980 526.63,-980 526.63,-1036"/>
<text text-anchor="middle" x="492.01" y="-1022.5" font-family="Arial" font-size="10.00" fill="#ffffff">pop</text>
<text text-anchor="middle" x="492.01" y="-1010.5" font-family="Arial" font-size="10.00" fill="#ffffff">2.04%</text>
<text text-anchor="middle" x="492.01" y="-998.5" font-family="Arial" font-size="10.00" fill="#ffffff">(2.04%)</text>
<text text-anchor="middle" x="492.01" y="-986.5" font-family="Arial" font-size="10.00" fill="#ffffff">184014823×</text>
</g>
<!-- 4&#45;&gt;25 -->
<g id="edge11" class="edge">
<title>4&#45;&gt;25</title>
<path fill="none" stroke="#0d1575" stroke-width="0.5" d="M363.85,-1100.65C387.43,-1095.92 421.25,-1086.54 446.01,-1069 456.97,-1061.23 466.53,-1050.07 474.04,-1039.49"/>
<polygon fill="#0d1575" stroke="#0d1575" stroke-width="0.5" points="474.89,-1040.42 475.88,-1036.84 472.87,-1039.02 474.89,-1040.42"/>
<text text-anchor="middle" x="495.92" y="-1059.5" font-family="Arial" font-size="10.00" fill="#0d1575">2.04%</text>
<text text-anchor="middle" x="495.92" y="-1047.5" font-family="Arial" font-size="10.00" fill="#0d1575">184014704×</text>
</g>
<!-- 30 -->
<g id="node13" class="node">
<title>30</title>
<polygon fill="#0d0f73" stroke="#0d0f73" points="600.01,-1036 536.01,-1036 536.01,-980 600.01,-980 600.01,-1036"/>
<text text-anchor="middle" x="568.01" y="-1022.5" font-family="Arial" font-size="10.00" fill="#ffffff">isFalsey</text>
<text text-anchor="middle" x="568.01" y="-1010.5" font-family="Arial" font-size="10.00" fill="#ffffff">0.51%</text>
<text text-anchor="middle" x="568.01" y="-998.5" font-family="Arial" font-size="10.00" fill="#ffffff">(0.51%)</text>
<text text-anchor="middle" x="568.01" y="-986.5" font-family="Arial" font-size="10.00" fill="#ffffff">12735870×</text>
</g>
<!-- 4&#45;&gt;30 -->
<g id="edge12" class="edge">
<title>4&#45;&gt;30</title>
<path fill="none" stroke="#0d0f73" stroke-width="0.5" d="M364,-1105.93C403.1,-1105.91 474.9,-1101.01 525.01,-1069 536.26,-1061.81 545.48,-1050.53 552.45,-1039.68"/>
<polygon fill="#0d0f73" stroke="#0d0f73" stroke-width="0.5" points="553.33,-1040.59 554.14,-1036.97 551.25,-1039.29 553.33,-1040.59"/>
<text text-anchor="middle" x="572.82" y="-1059.5" font-family="Arial" font-size="10.00" fill="#0d0f73">0.51%</text>
<text text-anchor="middle" x="572.82" y="-1047.5" font-family="Arial" font-size="10.00" fill="#0d0f73">12735870×</text>
</g>
<!-- 7 -->
<g id="node14" class="node">
<title>7</title>
<polygon fill="#0c8a92" stroke="#0c8a92" points="433.63,-742 352.38,-742 352.38,-686 433.63,-686 433.63,-742"/>
<text text-anchor="middle" x="393.01" y="-728.5" font-family="Arial" font-size="10.00" fill="#ffffff">adjustCapacity</text>
<text text-anchor="middle" x="393.01" y="-716.5" font-family="Arial" font-size="10.00" fill="#ffffff">23.57%</text>
<text text-anchor="middle" x="393.01" y="-704.5" font-family="Arial" font-size="10.00" fill="#ffffff">(4.59%)</text>
<text text-anchor="middle" x="393.01" y="-692.5" font-family="Arial" font-size="10.00" fill="#ffffff">6346084×</text>
</g>
<!-- 5&#45;&gt;7 -->
<g id="edge13" class="edge">
<title>5&#45;&gt;7</title>
<path fill="none" stroke="#0c8a92" stroke-width="0.94" d="M379.64,-783.84C380.9,-780.91 382.05,-777.92 383.01,-775 385.74,-766.6 387.75,-757.27 389.23,-748.53"/>
<polygon fill="#0c8a92" stroke="#0c8a92" stroke-width="0.94" points="390.92,-748.8 389.99,-743.7 387.53,-748.27 390.92,-748.8"/>
<text text-anchor="middle" x="409.93" y="-765.5" font-family="Arial" font-size="10.00" fill="#0c8a92">23.57%</text>
<text text-anchor="middle" x="409.93" y="-753.5" font-family="Arial" font-size="10.00" fill="#0c8a92">6346084×</text>
</g>
<!-- 16 -->
<g id="node15" class="node">
<title>16</title>
<polygon fill="#0d367f" stroke="#0d367f" points="341.01,-742 277.01,-742 277.01,-686 341.01,-686 341.01,-742"/>
<text text-anchor="middle" x="309.01" y="-728.5" font-family="Arial" font-size="10.00" fill="#ffffff">findEntry</text>
<text text-anchor="middle" x="309.01" y="-716.5" font-family="Arial" font-size="10.00" fill="#ffffff">9.18%</text>
<text text-anchor="middle" x="309.01" y="-704.5" font-family="Arial" font-size="10.00" fill="#ffffff">(9.18%)</text>
<text text-anchor="middle" x="309.01" y="-692.5" font-family="Arial" font-size="10.00" fill="#ffffff">69828908×</text>
</g>
<!-- 5&#45;&gt;16 -->
<g id="edge14" class="edge">
<title>5&#45;&gt;16</title>
<path fill="none" stroke="#0d1b77" stroke-width="0.5" d="M339.18,-783.85C336.95,-780.96 334.85,-777.99 333.01,-775 327.49,-766.07 322.79,-755.65 319.06,-746.02"/>
<polygon fill="#0d1b77" stroke="#0d1b77" stroke-width="0.5" points="320.28,-745.79 317.9,-742.95 317.99,-746.65 320.28,-745.79"/>
<text text-anchor="middle" x="357.01" y="-765.5" font-family="Arial" font-size="10.00" fill="#0d1b77">3.34%</text>
<text text-anchor="middle" x="357.01" y="-753.5" font-family="Arial" font-size="10.00" fill="#0d1b77">25384387×</text>
</g>
<!-- 12&#45;&gt;17 -->
<g id="edge24" class="edge">
<title>12&#45;&gt;17</title>
<path fill="none" stroke="#0d1274" stroke-width="0.5" d="M279.18,-883.85C277.81,-883.17 276.41,-882.54 275.01,-882 246.39,-870.96 162.88,-889.86 137.26,-873 127.25,-866.42 132.52,-858.32 125.01,-849 122.3,-845.64 119.23,-842.37 116,-839.27"/>
<polygon fill="#0d1274" stroke="#0d1274" stroke-width="0.5" points="117.2,-838.72 113.81,-837.22 115.53,-840.51 117.2,-838.72"/>
<text text-anchor="middle" x="158.63" y="-863.5" font-family="Arial" font-size="10.00" fill="#0d1274">1.27%</text>
<text text-anchor="middle" x="158.63" y="-851.5" font-family="Arial" font-size="10.00" fill="#0d1274">6346078×</text>
</g>
<!-- 15 -->
<g id="node24" class="node">
<title>15</title>
<polygon fill="#0d387f" stroke="#0d387f" points="319.76,-840 248.26,-840 248.26,-784 319.76,-784 319.76,-840"/>
<text text-anchor="middle" x="284.01" y="-826.5" font-family="Arial" font-size="10.00" fill="#ffffff">newInstance</text>
<text text-anchor="middle" x="284.01" y="-814.5" font-family="Arial" font-size="10.00" fill="#ffffff">9.49%</text>
<text text-anchor="middle" x="284.01" y="-802.5" font-family="Arial" font-size="10.00" fill="#ffffff">(0.00%)</text>
<text text-anchor="middle" x="284.01" y="-790.5" font-family="Arial" font-size="10.00" fill="#ffffff">6346078×</text>
</g>
<!-- 12&#45;&gt;15 -->
<g id="edge23" class="edge">
<title>12&#45;&gt;15</title>
<path fill="none" stroke="#0d387f" stroke-width="0.5" d="M303.74,-881.67C301.58,-871.37 298.91,-859.59 296.01,-849 295.6,-847.51 295.17,-846 294.72,-844.48"/>
<polygon fill="#0d387f" stroke="#0d387f" stroke-width="0.5" points="295.89,-844.14 293.71,-841.15 293.55,-844.85 295.89,-844.14"/>
<text text-anchor="middle" x="323.01" y="-863.5" font-family="Arial" font-size="10.00" fill="#0d387f">9.49%</text>
<text text-anchor="middle" x="323.01" y="-851.5" font-family="Arial" font-size="10.00" fill="#0d387f">6346078×</text>
</g>
<!-- 24 -->
<g id="node25" class="node">
<title>24</title>
<polygon fill="#0d1776" stroke="#0d1776" points="232.01,-840 168.01,-840 168.01,-784 232.01,-784 232.01,-840"/>
<text text-anchor="middle" x="200.01" y="-826.5" font-family="Arial" font-size="10.00" fill="#ffffff">call</text>
<text text-anchor="middle" x="200.01" y="-814.5" font-family="Arial" font-size="10.00" fill="#ffffff">2.55%</text>
<text text-anchor="middle" x="200.01" y="-802.5" font-family="Arial" font-size="10.00" fill="#ffffff">(2.55%)</text>
<text text-anchor="middle" x="200.01" y="-790.5" font-family="Arial" font-size="10.00" fill="#ffffff">12692157×</text>
</g>
<!-- 12&#45;&gt;24 -->
<g id="edge25" class="edge">
<title>12&#45;&gt;24</title>
<path fill="none" stroke="#0d1274" stroke-width="0.5" d="M279.33,-884.62C277.89,-883.7 276.45,-882.82 275.01,-882 265.19,-876.42 259.9,-880.26 251.26,-873 241.76,-865.02 244.68,-858.74 237.01,-849 235.48,-847.06 233.85,-845.12 232.16,-843.2"/>
<polygon fill="#0d1274" stroke="#0d1274" stroke-width="0.5" points="233.22,-842.55 229.97,-840.78 231.4,-844.19 233.22,-842.55"/>
<text text-anchor="middle" x="272.63" y="-863.5" font-family="Arial" font-size="10.00" fill="#0d1274">1.28%</text>
<text text-anchor="middle" x="272.63" y="-851.5" font-family="Arial" font-size="10.00" fill="#0d1274">6346078×</text>
</g>
<!-- 13&#45;&gt;17 -->
<g id="edge26" class="edge">
<title>13&#45;&gt;17</title>
<path fill="none" stroke="#0d1274" stroke-width="0.5" d="M126.24,-996.44C101.45,-985.87 67.79,-966.98 52.26,-938 36.35,-908.32 49.27,-870.09 62.5,-843.77"/>
<polygon fill="#0d1274" stroke="#0d1274" stroke-width="0.5" points="63.43,-844.64 63.94,-840.97 61.25,-843.52 63.43,-844.64"/>
<text text-anchor="middle" x="73.63" y="-912.5" font-family="Arial" font-size="10.00" fill="#0d1274">1.27%</text>
<text text-anchor="middle" x="73.63" y="-900.5" font-family="Arial" font-size="10.00" fill="#0d1274">6346078×</text>
</g>
<!-- 13&#45;&gt;20 -->
<g id="edge27" class="edge">
<title>13&#45;&gt;20</title>
<path fill="none" stroke="#0d0d73" stroke-width="0.5" d="M167,-979.69C172.16,-968.83 179.01,-956.64 187.26,-947 189.31,-944.6 193.09,-941.34 197.67,-937.75"/>
<polygon fill="#0d0d73" stroke="#0d0d73" stroke-width="0.5" points="198.33,-938.79 200.36,-935.69 196.83,-936.85 198.33,-938.79"/>
<text text-anchor="middle" x="208.63" y="-961.5" font-family="Arial" font-size="10.00" fill="#0d0d73">0.18%</text>
<text text-anchor="middle" x="208.63" y="-949.5" font-family="Arial" font-size="10.00" fill="#0d0d73">6346078×</text>
</g>
<!-- 22 -->
<g id="node26" class="node">
<title>22</title>
<polygon fill="#0d1c77" stroke="#0d1c77" points="192.26,-938 99.76,-938 99.76,-882 192.26,-882 192.26,-938"/>
<text text-anchor="middle" x="146.01" y="-924.5" font-family="Arial" font-size="10.00" fill="#ffffff">invokeFromClass</text>
<text text-anchor="middle" x="146.01" y="-912.5" font-family="Arial" font-size="10.00" fill="#ffffff">3.57%</text>
<text text-anchor="middle" x="146.01" y="-900.5" font-family="Arial" font-size="10.00" fill="#ffffff">(1.02%)</text>
<text text-anchor="middle" x="146.01" y="-888.5" font-family="Arial" font-size="10.00" fill="#ffffff">6346078×</text>
</g>
<!-- 13&#45;&gt;22 -->
<g id="edge28" class="edge">
<title>13&#45;&gt;22</title>
<path fill="none" stroke="#0d1c77" stroke-width="0.5" d="M133.95,-979.61C132.47,-976.82 131.19,-973.93 130.26,-971 127.29,-961.76 128.37,-951.59 131,-942.29"/>
<polygon fill="#0d1c77" stroke="#0d1c77" stroke-width="0.5" points="132.13,-942.79 132,-939.08 129.79,-942.06 132.13,-942.79"/>
<text text-anchor="middle" x="151.63" y="-961.5" font-family="Arial" font-size="10.00" fill="#0d1c77">3.57%</text>
<text text-anchor="middle" x="151.63" y="-949.5" font-family="Arial" font-size="10.00" fill="#0d1c77">6346078×</text>
</g>
<!-- 17&#45;&gt;16 -->
<g id="edge31" class="edge">
<title>17&#45;&gt;16</title>
<path fill="none" stroke="#0d267a" stroke-width="0.5" d="M113.27,-798.52C128.19,-793.23 146.28,-787.49 163.01,-784 183.98,-779.62 241.33,-787.1 259.01,-775 268.85,-768.26 263.9,-760.58 271.01,-751 272.36,-749.18 273.81,-747.36 275.33,-745.58"/>
<polygon fill="#0d267a" stroke="#0d267a" stroke-width="0.5" points="276.23,-746.41 277.62,-742.97 274.39,-744.79 276.23,-746.41"/>
<text text-anchor="middle" x="295.01" y="-765.5" font-family="Arial" font-size="10.00" fill="#0d267a">5.85%</text>
<text text-anchor="middle" x="295.01" y="-753.5" font-family="Arial" font-size="10.00" fill="#0d267a">44444497×</text>
</g>
<!-- 31 -->
<g id="node16" class="node">
<title>31</title>
<polygon fill="#0c9884" stroke="#0c9884" points="336.01,-644 272.01,-644 272.01,-588 336.01,-588 336.01,-644"/>
<text text-anchor="middle" x="304.01" y="-630.5" font-family="Arial" font-size="10.00" fill="#ffffff">reallocate</text>
<text text-anchor="middle" x="304.01" y="-618.5" font-family="Arial" font-size="10.00" fill="#ffffff">28.57%</text>
<text text-anchor="middle" x="304.01" y="-606.5" font-family="Arial" font-size="10.00" fill="#ffffff">(0.51%)</text>
<text text-anchor="middle" x="304.01" y="-594.5" font-family="Arial" font-size="10.00" fill="#ffffff">31730564×</text>
</g>
<!-- 7&#45;&gt;31 -->
<g id="edge15" class="edge">
<title>7&#45;&gt;31</title>
<path fill="none" stroke="#0c6d8b" stroke-width="0.76" d="M367.74,-685.75C356.94,-674.09 344.26,-660.42 333.07,-648.35"/>
<polygon fill="#0c6d8b" stroke="#0c6d8b" stroke-width="0.76" points="334.24,-647.34 330.12,-645.16 331.98,-649.44 334.24,-647.34"/>
<text text-anchor="middle" x="383.09" y="-667.5" font-family="Arial" font-size="10.00" fill="#0c6d8b">18.98%</text>
<text text-anchor="middle" x="383.09" y="-655.5" font-family="Arial" font-size="10.00" fill="#0c6d8b">12692168×</text>
</g>
<!-- 8 -->
<g id="node17" class="node">
<title>8</title>
<polygon fill="#0c9886" stroke="#0c9886" points="344.63,-546 263.38,-546 263.38,-490 344.63,-490 344.63,-546"/>
<text text-anchor="middle" x="304.01" y="-532.5" font-family="Arial" font-size="10.00" fill="#ffffff">collectGarbage</text>
<text text-anchor="middle" x="304.01" y="-520.5" font-family="Arial" font-size="10.00" fill="#ffffff">28.06%</text>
<text text-anchor="middle" x="304.01" y="-508.5" font-family="Arial" font-size="10.00" fill="#ffffff">(0.00%)</text>
<text text-anchor="middle" x="304.01" y="-496.5" font-family="Arial" font-size="10.00" fill="#ffffff">182×</text>
</g>
<!-- 31&#45;&gt;8 -->
<g id="edge37" class="edge">
<title>31&#45;&gt;8</title>
<path fill="none" stroke="#0c9886" stroke-width="1.12" d="M304.01,-587.75C304.01,-577.01 304.01,-564.55 304.01,-553.21"/>
<polygon fill="#0c9886" stroke="#0c9886" stroke-width="1.12" points="305.86,-553.32 304.01,-548.02 302.15,-553.32 305.86,-553.32"/>
<text text-anchor="middle" x="320.51" y="-569.5" font-family="Arial" font-size="10.00" fill="#0c9886">28.06%</text>
<text text-anchor="middle" x="320.51" y="-557.5" font-family="Arial" font-size="10.00" fill="#0c9886">182×</text>
</g>
<!-- 10 -->
<g id="node18" class="node">
<title>10</title>
<polygon fill="#0c698b" stroke="#0c698b" points="310.01,-448 222.01,-448 222.01,-392 310.01,-392 310.01,-448"/>
<text text-anchor="middle" x="266.01" y="-434.5" font-family="Arial" font-size="10.00" fill="#ffffff">traceReferences</text>
<text text-anchor="middle" x="266.01" y="-422.5" font-family="Arial" font-size="10.00" fill="#ffffff">18.37%</text>
<text text-anchor="middle" x="266.01" y="-410.5" font-family="Arial" font-size="10.00" fill="#ffffff">(0.00%)</text>
<text text-anchor="middle" x="266.01" y="-398.5" font-family="Arial" font-size="10.00" fill="#ffffff">182×</text>
</g>
<!-- 8&#45;&gt;10 -->
<g id="edge16" class="edge">
<title>8&#45;&gt;10</title>
<path fill="none" stroke="#0c698b" stroke-width="0.73" d="M293.22,-489.75C288.73,-478.4 283.47,-465.13 278.79,-453.3"/>
<polygon fill="#0c698b" stroke="#0c698b" stroke-width="0.73" points="280.21,-452.79 277.23,-449.35 277.41,-453.9 280.21,-452.79"/>
<text text-anchor="middle" x="306.03" y="-471.5" font-family="Arial" font-size="10.00" fill="#0c698b">18.37%</text>
<text text-anchor="middle" x="306.03" y="-459.5" font-family="Arial" font-size="10.00" fill="#0c698b">182×</text>
</g>
<!-- 18 -->
<g id="node19" class="node">
<title>18</title>
<polygon fill="#0d397f" stroke="#0d397f" points="368.88,-448 319.13,-448 319.13,-392 368.88,-392 368.88,-448"/>
<text text-anchor="middle" x="344.01" y="-434.5" font-family="Arial" font-size="10.00" fill="#ffffff">sweep</text>
<text text-anchor="middle" x="344.01" y="-422.5" font-family="Arial" font-size="10.00" fill="#ffffff">9.69%</text>
<text text-anchor="middle" x="344.01" y="-410.5" font-family="Arial" font-size="10.00" fill="#ffffff">(8.16%)</text>
<text text-anchor="middle" x="344.01" y="-398.5" font-family="Arial" font-size="10.00" fill="#ffffff">182×</text>
</g>
<!-- 8&#45;&gt;18 -->
<g id="edge17" class="edge">
<title>8&#45;&gt;18</title>
<path fill="none" stroke="#0d397f" stroke-width="0.5" d="M318.96,-489.69C320.39,-486.78 321.76,-483.85 323.01,-481 327.02,-471.79 330.83,-461.55 334.08,-452.17"/>
<polygon fill="#0d397f" stroke="#0d397f" stroke-width="0.5" points="335.22,-452.64 335.19,-448.93 332.9,-451.84 335.22,-452.64"/>
<text text-anchor="middle" x="345.81" y="-471.5" font-family="Arial" font-size="10.00" fill="#0d397f">9.69%</text>
<text text-anchor="middle" x="345.81" y="-459.5" font-family="Arial" font-size="10.00" fill="#0d397f">182×</text>
</g>
<!-- 9 -->
<g id="node20" class="node">
<title>9</title>
<polygon fill="#0c698b" stroke="#0c698b" points="305.13,-350 226.88,-350 226.88,-294 305.13,-294 305.13,-350"/>
<text text-anchor="middle" x="266.01" y="-336.5" font-family="Arial" font-size="10.00" fill="#ffffff">blackenObject</text>
<text text-anchor="middle" x="266.01" y="-324.5" font-family="Arial" font-size="10.00" fill="#ffffff">18.37%</text>
<text text-anchor="middle" x="266.01" y="-312.5" font-family="Arial" font-size="10.00" fill="#ffffff">(0.51%)</text>
<text text-anchor="middle" x="266.01" y="-300.5" font-family="Arial" font-size="10.00" fill="#ffffff">6371362×</text>
</g>
<!-- 10&#45;&gt;9 -->
<g id="edge20" class="edge">
<title>10&#45;&gt;9</title>
<path fill="none" stroke="#0c698b" stroke-width="0.73" d="M266.01,-391.75C266.01,-380.5 266.01,-367.37 266.01,-355.61"/>
<polygon fill="#0c698b" stroke="#0c698b" stroke-width="0.73" points="267.51,-355.73 266.01,-351.43 264.5,-355.73 267.51,-355.73"/>
<text text-anchor="middle" x="287.38" y="-373.5" font-family="Arial" font-size="10.00" fill="#0c698b">18.37%</text>
<text text-anchor="middle" x="287.38" y="-361.5" font-family="Arial" font-size="10.00" fill="#0c698b">6371362×</text>
</g>
<!-- 32 -->
<g id="node28" class="node">
<title>32</title>
<polygon fill="#0d1475" stroke="#0d1475" points="375.51,-350 314.51,-350 314.51,-294 375.51,-294 375.51,-350"/>
<text text-anchor="middle" x="345.01" y="-336.5" font-family="Arial" font-size="10.00" fill="#ffffff">freeObject</text>
<text text-anchor="middle" x="345.01" y="-324.5" font-family="Arial" font-size="10.00" fill="#ffffff">1.62%</text>
<text text-anchor="middle" x="345.01" y="-312.5" font-family="Arial" font-size="10.00" fill="#ffffff">(0.51%)</text>
<text text-anchor="middle" x="345.01" y="-300.5" font-family="Arial" font-size="10.00" fill="#ffffff">6346109×</text>
</g>
<!-- 18&#45;&gt;32 -->
<g id="edge32" class="edge">
<title>18&#45;&gt;32</title>
<path fill="none" stroke="#0d1375" stroke-width="0.5" d="M344.29,-391.75C344.41,-380.09 344.55,-366.42 344.68,-354.35"/>
<polygon fill="#0d1375" stroke="#0d1375" stroke-width="0.5" points="345.9,-354.59 344.71,-351.08 343.45,-354.56 345.9,-354.59"/>
<text text-anchor="middle" x="366" y="-373.5" font-family="Arial" font-size="10.00" fill="#0d1375">1.53%</text>
<text text-anchor="middle" x="366" y="-361.5" font-family="Arial" font-size="10.00" fill="#0d1375">6280544×</text>
</g>
<!-- 11 -->
<g id="node21" class="node">
<title>11</title>
<polygon fill="#0c6289" stroke="#0c6289" points="252.51,-252 191.51,-252 191.51,-196 252.51,-196 252.51,-252"/>
<text text-anchor="middle" x="222.01" y="-238.5" font-family="Arial" font-size="10.00" fill="#ffffff">markTable</text>
<text text-anchor="middle" x="222.01" y="-226.5" font-family="Arial" font-size="10.00" fill="#ffffff">17.24%</text>
<text text-anchor="middle" x="222.01" y="-214.5" font-family="Arial" font-size="10.00" fill="#ffffff">(11.22%)</text>
<text text-anchor="middle" x="222.01" y="-202.5" font-family="Arial" font-size="10.00" fill="#ffffff">6366084×</text>
</g>
<!-- 9&#45;&gt;11 -->
<g id="edge18" class="edge">
<title>9&#45;&gt;11</title>
<path fill="none" stroke="#0c6289" stroke-width="0.69" d="M239.51,-293.73C237.54,-290.91 235.74,-287.98 234.26,-285 230.02,-276.49 227.24,-266.6 225.43,-257.34"/>
<polygon fill="#0c6289" stroke="#0c6289" stroke-width="0.69" points="226.89,-257.17 224.7,-253.3 224,-257.69 226.89,-257.17"/>
<text text-anchor="middle" x="255.63" y="-275.5" font-family="Arial" font-size="10.00" fill="#0c6289">17.24%</text>
<text text-anchor="middle" x="255.63" y="-263.5" font-family="Arial" font-size="10.00" fill="#0c6289">6365902×</text>
</g>
<!-- 19 -->
<g id="node22" class="node">
<title>19</title>
<polygon fill="#0d287b" stroke="#0d287b" points="255.13,-56 188.88,-56 188.88,0 255.13,0 255.13,-56"/>
<text text-anchor="middle" x="222.01" y="-42.5" font-family="Arial" font-size="10.00" fill="#ffffff">markObject</text>
<text text-anchor="middle" x="222.01" y="-30.5" font-family="Arial" font-size="10.00" fill="#ffffff">6.12%</text>
<text text-anchor="middle" x="222.01" y="-18.5" font-family="Arial" font-size="10.00" fill="#ffffff">(6.12%)</text>
<text text-anchor="middle" x="222.01" y="-6.5" font-family="Arial" font-size="10.00" fill="#ffffff">63679246×</text>
</g>
<!-- 9&#45;&gt;19 -->
<g id="edge19" class="edge">
<title>9&#45;&gt;19</title>
<path fill="none" stroke="#0d0f74" stroke-width="0.5" d="M273.59,-293.61C274.17,-290.72 274.66,-287.81 275.01,-285 276.31,-274.41 275.1,-271.67 275.01,-261 274.34,-188.55 294.99,-166.72 272.01,-98 267.37,-84.15 258.88,-70.72 250.19,-59.45"/>
<polygon fill="#0d0f74" stroke="#0d0f74" stroke-width="0.5" points="251.33,-58.92 248.2,-56.92 249.4,-60.43 251.33,-58.92"/>
<text text-anchor="middle" x="304.2" y="-177.5" font-family="Arial" font-size="10.00" fill="#0d0f74">0.61%</text>
<text text-anchor="middle" x="304.2" y="-165.5" font-family="Arial" font-size="10.00" fill="#0d0f74">6366994×</text>
</g>
<!-- 11&#45;&gt;19 -->
<g id="edge21" class="edge">
<title>11&#45;&gt;19</title>
<path fill="none" stroke="#0d2279" stroke-width="0.5" d="M222.01,-195.62C222.01,-159.94 222.01,-97.72 222.01,-60.24"/>
<polygon fill="#0d2279" stroke="#0d2279" stroke-width="0.5" points="223.23,-60.5 222.01,-57 220.78,-60.5 223.23,-60.5"/>
<text text-anchor="middle" x="246.01" y="-128.5" font-family="Arial" font-size="10.00" fill="#0d2279">4.90%</text>
<text text-anchor="middle" x="246.01" y="-116.5" font-family="Arial" font-size="10.00" fill="#0d2279">50928672×</text>
</g>
<!-- 27 -->
<g id="node23" class="node">
<title>27</title>
<polygon fill="#0d1174" stroke="#0d1174" points="198.01,-154 134.01,-154 134.01,-98 198.01,-98 198.01,-154"/>
<text text-anchor="middle" x="166.01" y="-140.5" font-family="Arial" font-size="10.00" fill="#ffffff">markValue</text>
<text text-anchor="middle" x="166.01" y="-128.5" font-family="Arial" font-size="10.00" fill="#ffffff">1.12%</text>
<text text-anchor="middle" x="166.01" y="-116.5" font-family="Arial" font-size="10.00" fill="#ffffff">(0.51%)</text>
<text text-anchor="middle" x="166.01" y="-104.5" font-family="Arial" font-size="10.00" fill="#ffffff">50954018×</text>
</g>
<!-- 11&#45;&gt;27 -->
<g id="edge22" class="edge">
<title>11&#45;&gt;27</title>
<path fill="none" stroke="#0d1174" stroke-width="0.5" d="M191.19,-209.98C181.73,-204.36 172.41,-196.79 167.01,-187 162.3,-178.46 160.9,-168.14 161.02,-158.49"/>
<polygon fill="#0d1174" stroke="#0d1174" stroke-width="0.5" points="162.24,-158.69 161.13,-155.15 159.79,-158.61 162.24,-158.69"/>
<text text-anchor="middle" x="191.01" y="-177.5" font-family="Arial" font-size="10.00" fill="#0d1174">1.12%</text>
<text text-anchor="middle" x="191.01" y="-165.5" font-family="Arial" font-size="10.00" fill="#0d1174">50928672×</text>
</g>
<!-- 27&#45;&gt;19 -->
<g id="edge36" class="edge">
<title>27&#45;&gt;19</title>
<path fill="none" stroke="#0d0f74" stroke-width="0.5" d="M164.19,-97.54C164.64,-86.78 166.65,-74.7 172.26,-65 175.57,-59.27 180.2,-54.2 185.32,-49.81"/>
<polygon fill="#0d0f74" stroke="#0d0f74" stroke-width="0.5" points="186.04,-50.8 187.98,-47.64 184.49,-48.9 186.04,-50.8"/>
<text text-anchor="middle" x="193.63" y="-79.5" font-family="Arial" font-size="10.00" fill="#0d0f74">0.61%</text>
<text text-anchor="middle" x="193.63" y="-67.5" font-family="Arial" font-size="10.00" fill="#0d0f74">6381566×</text>
</g>
<!-- 14 -->
<g id="node27" class="node">
<title>14</title>
<polygon fill="#0d387f" stroke="#0d387f" points="263.13,-742 184.88,-742 184.88,-686 263.13,-686 263.13,-742"/>
<text text-anchor="middle" x="224.01" y="-728.5" font-family="Arial" font-size="10.00" fill="#ffffff">allocateObject</text>
<text text-anchor="middle" x="224.01" y="-716.5" font-family="Arial" font-size="10.00" fill="#ffffff">9.49%</text>
<text text-anchor="middle" x="224.01" y="-704.5" font-family="Arial" font-size="10.00" fill="#ffffff">(0.00%)</text>
<text text-anchor="middle" x="224.01" y="-692.5" font-family="Arial" font-size="10.00" fill="#ffffff">6346109×</text>
</g>
<!-- 15&#45;&gt;14 -->
<g id="edge30" class="edge">
<title>15&#45;&gt;14</title>
<path fill="none" stroke="#0d387f" stroke-width="0.5" d="M247.93,-790.49C243.92,-788.27 239.88,-786.07 236.01,-784 228.2,-779.83 222.88,-782.54 218.26,-775 213.08,-766.57 212.51,-756.19 213.85,-746.45"/>
<polygon fill="#0d387f" stroke="#0d387f" stroke-width="0.5" points="215.05,-746.72 214.41,-743.06 212.63,-746.32 215.05,-746.72"/>
<text text-anchor="middle" x="239.63" y="-765.5" font-family="Arial" font-size="10.00" fill="#0d387f">9.49%</text>
<text text-anchor="middle" x="239.63" y="-753.5" font-family="Arial" font-size="10.00" fill="#0d387f">6346078×</text>
</g>
<!-- 22&#45;&gt;17 -->
<g id="edge33" class="edge">
<title>22&#45;&gt;17</title>
<path fill="none" stroke="#0d1274" stroke-width="0.5" d="M99.47,-885.66C92.33,-881.2 86.55,-876.76 84.26,-873 79.12,-864.59 77.33,-854.21 77.12,-844.47"/>
<polygon fill="#0d1274" stroke="#0d1274" stroke-width="0.5" points="78.34,-844.59 77.12,-841.09 75.89,-844.59 78.34,-844.59"/>
<text text-anchor="middle" x="105.63" y="-863.5" font-family="Arial" font-size="10.00" fill="#0d1274">1.27%</text>
<text text-anchor="middle" x="105.63" y="-851.5" font-family="Arial" font-size="10.00" fill="#0d1274">6346078×</text>
</g>
<!-- 22&#45;&gt;24 -->
<g id="edge34" class="edge">
<title>22&#45;&gt;24</title>
<path fill="none" stroke="#0d1274" stroke-width="0.5" d="M175.77,-881.84C178.07,-879 180.19,-876.04 182.01,-873 187.18,-864.34 190.97,-854.08 193.69,-844.51"/>
<polygon fill="#0d1274" stroke="#0d1274" stroke-width="0.5" points="194.86,-844.89 194.6,-841.19 192.49,-844.25 194.86,-844.89"/>
<text text-anchor="middle" x="213.56" y="-863.5" font-family="Arial" font-size="10.00" fill="#0d1274">1.28%</text>
<text text-anchor="middle" x="213.56" y="-851.5" font-family="Arial" font-size="10.00" fill="#0d1274">6346078×</text>
</g>
<!-- 14&#45;&gt;31 -->
<g id="edge29" class="edge">
<title>14&#45;&gt;31</title>
<path fill="none" stroke="#0d387f" stroke-width="0.5" d="M246.72,-685.75C256.68,-673.79 268.42,-659.7 278.67,-647.41"/>
<polygon fill="#0d387f" stroke="#0d387f" stroke-width="0.5" points="279.45,-648.38 280.75,-644.9 277.57,-646.81 279.45,-648.38"/>
<text text-anchor="middle" x="294.9" y="-667.5" font-family="Arial" font-size="10.00" fill="#0d387f">9.49%</text>
<text text-anchor="middle" x="294.9" y="-655.5" font-family="Arial" font-size="10.00" fill="#0d387f">6346109×</text>
</g>
<!-- 28 -->
<g id="node31" class="node">
<title>28</title>
<polygon fill="#0d1174" stroke="#0d1174" points="374.38,-252 315.63,-252 315.63,-196 374.38,-196 374.38,-252"/>
<text text-anchor="middle" x="345.01" y="-238.5" font-family="Arial" font-size="10.00" fill="#ffffff">freeTable</text>
<text text-anchor="middle" x="345.01" y="-226.5" font-family="Arial" font-size="10.00" fill="#ffffff">1.02%</text>
<text text-anchor="middle" x="345.01" y="-214.5" font-family="Arial" font-size="10.00" fill="#ffffff">(1.02%)</text>
<text text-anchor="middle" x="345.01" y="-202.5" font-family="Arial" font-size="10.00" fill="#ffffff">6346081×</text>
</g>
<!-- 32&#45;&gt;28 -->
<g id="edge38" class="edge">
<title>32&#45;&gt;28</title>
<path fill="none" stroke="#0d1174" stroke-width="0.5" d="M345.01,-293.75C345.01,-282.09 345.01,-268.42 345.01,-256.35"/>
<polygon fill="#0d1174" stroke="#0d1174" stroke-width="0.5" points="346.23,-256.58 345.01,-253.08 343.78,-256.58 346.23,-256.58"/>
<text text-anchor="middle" x="366.38" y="-275.5" font-family="Arial" font-size="10.00" fill="#0d1174">1.02%</text>
<text text-anchor="middle" x="366.38" y="-263.5" font-family="Arial" font-size="10.00" fill="#0d1174">6346079×</text>
</g>
<!-- 23 -->
<g id="node29" class="node">
<title>23</title>
<polygon fill="#0d1a77" stroke="#0d1a77" points="454.88,-1416 405.13,-1416 405.13,-1372 454.88,-1372 454.88,-1416"/>
<text text-anchor="middle" x="430.01" y="-1402.5" font-family="Arial" font-size="10.00" fill="#ffffff">_init</text>
<text text-anchor="middle" x="430.01" y="-1390.5" font-family="Arial" font-size="10.00" fill="#ffffff">3.06%</text>
<text text-anchor="middle" x="430.01" y="-1378.5" font-family="Arial" font-size="10.00" fill="#ffffff">(3.06%)</text>
</g>
</g>
</svg>
