<?xml version="1.0" encoding="UTF-8" standalone="no"?>
<!DOCTYPE svg PUBLIC "-//W3C//DTD SVG 1.1//EN"
 "http://www.w3.org/Graphics/SVG/1.1/DTD/svg11.dtd">
<!-- Generated by graphviz version 12.2.1 (20241206.2353)
 -->
<!-- Pages: 1 -->
<svg width="717pt" height="1358pt"
 viewBox="0.00 0.00 717.27 1358.00" xmlns="http://www.w3.org/2000/svg" xmlns:xlink="http://www.w3.org/1999/xlink">
<g id="graph0" class="graph" transform="scale(1 1) rotate(0) translate(4 1354)">
<g id="a_graph0"><a xlink:title=" ">
<polygon fill="white" stroke="none" points="-4,4 -4,-1354 713.27,-1354 713.27,4 -4,4"/>
</a>
</g>
<!-- 1 -->
<g id="node1" class="node">
<title>1</title>
<polygon fill="#f15b02" stroke="#f15b02" points="635.9,-1350 586.15,-1350 586.15,-1306 635.9,-1306 635.9,-1350"/>
<text text-anchor="middle" x="611.02" y="-1336.5" font-family="Arial" font-size="10.00" fill="#ffffff">main</text>
<text text-anchor="middle" x="611.02" y="-1324.5" font-family="Arial" font-size="10.00" fill="#ffffff">90.71%</text>
<text text-anchor="middle" x="611.02" y="-1312.5" font-family="Arial" font-size="10.00" fill="#ffffff">(0.00%)</text>
</g>
<!-- 3 -->
<g id="node2" class="node">
<title>3</title>
<polygon fill="#f06002" stroke="#f06002" points="606.9,-1264 557.15,-1264 557.15,-1208 606.9,-1208 606.9,-1264"/>
<text text-anchor="middle" x="582.02" y="-1250.5" font-family="Arial" font-size="10.00" fill="#ffffff">runFile</text>
<text text-anchor="middle" x="582.02" y="-1238.5" font-family="Arial" font-size="10.00" fill="#ffffff">90.14%</text>
<text text-anchor="middle" x="582.02" y="-1226.5" font-family="Arial" font-size="10.00" fill="#ffffff">(0.00%)</text>
<text text-anchor="middle" x="582.02" y="-1214.5" font-family="Arial" font-size="10.00" fill="#ffffff">1×</text>
</g>
<!-- 1&#45;&gt;3 -->
<g id="edge1" class="edge">
<title>1&#45;&gt;3</title>
<path fill="none" stroke="#f06002" stroke-width="3.61" d="M597.91,-1305.77C596.46,-1302.89 595.11,-1299.92 594.02,-1297 591.88,-1291.26 590.1,-1285.06 588.62,-1278.89"/>
<polygon fill="#f06002" stroke="#f06002" stroke-width="3.61" points="591.91,-1278.37 586.72,-1269.74 585.39,-1279.72 591.91,-1278.37"/>
<text text-anchor="middle" x="610.52" y="-1287.5" font-family="Arial" font-size="10.00" fill="#f06002">90.14%</text>
<text text-anchor="middle" x="610.52" y="-1275.5" font-family="Arial" font-size="10.00" fill="#f06002">1×</text>
</g>
<!-- 30 -->
<g id="node3" class="node">
<title>30</title>
<polygon fill="#0d0f73" stroke="#0d0f73" points="678.9,-1264 629.15,-1264 629.15,-1208 678.9,-1208 678.9,-1264"/>
<text text-anchor="middle" x="654.02" y="-1250.5" font-family="Arial" font-size="10.00" fill="#ffffff">freeVM</text>
<text text-anchor="middle" x="654.02" y="-1238.5" font-family="Arial" font-size="10.00" fill="#ffffff">0.56%</text>
<text text-anchor="middle" x="654.02" y="-1226.5" font-family="Arial" font-size="10.00" fill="#ffffff">(0.00%)</text>
<text text-anchor="middle" x="654.02" y="-1214.5" font-family="Arial" font-size="10.00" fill="#ffffff">1×</text>
</g>
<!-- 1&#45;&gt;30 -->
<g id="edge2" class="edge">
<title>1&#45;&gt;30</title>
<path fill="none" stroke="#0d0f73" stroke-width="0.5" d="M621.21,-1305.67C626.57,-1294.46 633.24,-1280.51 639.16,-1268.11"/>
<polygon fill="#0d0f73" stroke="#0d0f73" stroke-width="0.5" points="640.24,-1268.69 640.64,-1265 638.03,-1267.63 640.24,-1268.69"/>
<text text-anchor="middle" x="650.25" y="-1287.5" font-family="Arial" font-size="10.00" fill="#0d0f73">0.56%</text>
<text text-anchor="middle" x="650.25" y="-1275.5" font-family="Arial" font-size="10.00" fill="#0d0f73">1×</text>
</g>
<!-- 2 -->
<g id="node4" class="node">
<title>2</title>
<polygon fill="#f06002" stroke="#f06002" points="532.65,-1166 481.4,-1166 481.4,-1110 532.65,-1110 532.65,-1166"/>
<text text-anchor="middle" x="507.02" y="-1152.5" font-family="Arial" font-size="10.00" fill="#ffffff">interpret</text>
<text text-anchor="middle" x="507.02" y="-1140.5" font-family="Arial" font-size="10.00" fill="#ffffff">90.14%</text>
<text text-anchor="middle" x="507.02" y="-1128.5" font-family="Arial" font-size="10.00" fill="#ffffff">(0.00%)</text>
<text text-anchor="middle" x="507.02" y="-1116.5" font-family="Arial" font-size="10.00" fill="#ffffff">1×</text>
</g>
<!-- 3&#45;&gt;2 -->
<g id="edge4" class="edge">
<title>3&#45;&gt;2</title>
<path fill="none" stroke="#f06002" stroke-width="3.61" d="M560.73,-1207.75C553.53,-1198.53 545.33,-1188.04 537.56,-1178.08"/>
<polygon fill="#f06002" stroke="#f06002" stroke-width="3.61" points="540.2,-1176.07 531.73,-1170.63 534.96,-1180.16 540.2,-1176.07"/>
<text text-anchor="middle" x="569.95" y="-1189.5" font-family="Arial" font-size="10.00" fill="#f06002">90.14%</text>
<text text-anchor="middle" x="569.95" y="-1177.5" font-family="Arial" font-size="10.00" fill="#f06002">1×</text>
</g>
<!-- 31 -->
<g id="node31" class="node">
<title>31</title>
<polygon fill="#0d0f73" stroke="#0d0f73" points="704.15,-1101 637.9,-1101 637.9,-1045 704.15,-1045 704.15,-1101"/>
<text text-anchor="middle" x="671.02" y="-1087.5" font-family="Arial" font-size="10.00" fill="#ffffff">freeObjects</text>
<text text-anchor="middle" x="671.02" y="-1075.5" font-family="Arial" font-size="10.00" fill="#ffffff">0.56%</text>
<text text-anchor="middle" x="671.02" y="-1063.5" font-family="Arial" font-size="10.00" fill="#ffffff">(0.44%)</text>
<text text-anchor="middle" x="671.02" y="-1051.5" font-family="Arial" font-size="10.00" fill="#ffffff">1×</text>
</g>
<!-- 30&#45;&gt;31 -->
<g id="edge38" class="edge">
<title>30&#45;&gt;31</title>
<path fill="none" stroke="#0d0f73" stroke-width="0.5" d="M656.91,-1207.69C659.9,-1179.35 664.57,-1135.11 667.71,-1105.36"/>
<polygon fill="#0d0f73" stroke="#0d0f73" stroke-width="0.5" points="668.9,-1105.81 668.05,-1102.2 666.46,-1105.55 668.9,-1105.81"/>
<text text-anchor="middle" x="673.88" y="-1189.5" font-family="Arial" font-size="10.00" fill="#0d0f73">0.56%</text>
<text text-anchor="middle" x="673.88" y="-1177.5" font-family="Arial" font-size="10.00" fill="#0d0f73">1×</text>
</g>
<!-- 4 -->
<g id="node5" class="node">
<title>4</title>
<polygon fill="#f06002" stroke="#f06002" points="244.52,-1036 189.52,-1036 189.52,-980 244.52,-980 244.52,-1036"/>
<text text-anchor="middle" x="217.02" y="-1022.5" font-family="Arial" font-size="10.00" fill="#ffffff">run</text>
<text text-anchor="middle" x="217.02" y="-1010.5" font-family="Arial" font-size="10.00" fill="#ffffff">90.14%</text>
<text text-anchor="middle" x="217.02" y="-998.5" font-family="Arial" font-size="10.00" fill="#ffffff">(18.14%)</text>
<text text-anchor="middle" x="217.02" y="-986.5" font-family="Arial" font-size="10.00" fill="#ffffff">1×</text>
</g>
<!-- 2&#45;&gt;4 -->
<g id="edge3" class="edge">
<title>2&#45;&gt;4</title>
<path fill="none" stroke="#f06002" stroke-width="3.61" d="M481.03,-1125.53C430.58,-1103.26 319.01,-1054.02 258.31,-1027.22"/>
<polygon fill="#f06002" stroke="#f06002" stroke-width="3.61" points="259.78,-1024.24 249.75,-1023.45 257.1,-1030.32 259.78,-1024.24"/>
<text text-anchor="middle" x="437.83" y="-1075.5" font-family="Arial" font-size="10.00" fill="#f06002">90.14%</text>
<text text-anchor="middle" x="437.83" y="-1063.5" font-family="Arial" font-size="10.00" fill="#f06002">1×</text>
</g>
<!-- 5 -->
<g id="node6" class="node">
<title>5</title>
<polygon fill="#0ba553" stroke="#0ba553" points="554.02,-840 490.02,-840 490.02,-784 554.02,-784 554.02,-840"/>
<text text-anchor="middle" x="522.02" y="-826.5" font-family="Arial" font-size="10.00" fill="#ffffff">tableSet</text>
<text text-anchor="middle" x="522.02" y="-814.5" font-family="Arial" font-size="10.00" fill="#ffffff">38.28%</text>
<text text-anchor="middle" x="522.02" y="-802.5" font-family="Arial" font-size="10.00" fill="#ffffff">(7.96%)</text>
<text text-anchor="middle" x="522.02" y="-790.5" font-family="Arial" font-size="10.00" fill="#ffffff">25384387×</text>
</g>
<!-- 4&#45;&gt;5 -->
<g id="edge5" class="edge">
<title>4&#45;&gt;5</title>
<path fill="none" stroke="#0ba553" stroke-width="1.53" d="M244.97,-1003.06C272.99,-998.31 316.77,-988.67 351.02,-971 410.62,-940.26 464.79,-883.01 495.54,-846.52"/>
<polygon fill="#0ba553" stroke="#0ba553" stroke-width="1.53" points="496.85,-848.33 499.15,-842.18 493.51,-845.55 496.85,-848.33"/>
<text text-anchor="middle" x="486.41" y="-912.5" font-family="Arial" font-size="10.00" fill="#0ba553">38.28%</text>
<text text-anchor="middle" x="486.41" y="-900.5" font-family="Arial" font-size="10.00" fill="#0ba553">25384361×</text>
</g>
<!-- 12 -->
<g id="node7" class="node">
<title>12</title>
<polygon fill="#0c5786" stroke="#0c5786" points="386.4,-938 327.65,-938 327.65,-882 386.4,-882 386.4,-938"/>
<text text-anchor="middle" x="357.02" y="-924.5" font-family="Arial" font-size="10.00" fill="#ffffff">callValue</text>
<text text-anchor="middle" x="357.02" y="-912.5" font-family="Arial" font-size="10.00" fill="#ffffff">15.18%</text>
<text text-anchor="middle" x="357.02" y="-900.5" font-family="Arial" font-size="10.00" fill="#ffffff">(1.33%)</text>
<text text-anchor="middle" x="357.02" y="-888.5" font-family="Arial" font-size="10.00" fill="#ffffff">6346080×</text>
</g>
<!-- 4&#45;&gt;12 -->
<g id="edge6" class="edge">
<title>4&#45;&gt;12</title>
<path fill="none" stroke="#0c5786" stroke-width="0.61" d="M244.82,-988.58C253.25,-982.96 262.53,-976.75 271.02,-971 292.46,-956.49 297.8,-952.83 319.02,-938 320.43,-937.01 321.87,-936.01 323.32,-934.99"/>
<polygon fill="#0c5786" stroke="#0c5786" stroke-width="0.61" points="324.02,-936.16 326.43,-932.8 322.45,-933.93 324.02,-936.16"/>
<text text-anchor="middle" x="327.42" y="-961.5" font-family="Arial" font-size="10.00" fill="#0c5786">15.18%</text>
<text text-anchor="middle" x="327.42" y="-949.5" font-family="Arial" font-size="10.00" fill="#0c5786">6346080×</text>
</g>
<!-- 17 -->
<g id="node8" class="node">
<title>17</title>
<polygon fill="#0d337e" stroke="#0d337e" points="240.4,-938 181.65,-938 181.65,-882 240.4,-882 240.4,-938"/>
<text text-anchor="middle" x="211.02" y="-924.5" font-family="Arial" font-size="10.00" fill="#ffffff">invoke</text>
<text text-anchor="middle" x="211.02" y="-912.5" font-family="Arial" font-size="10.00" fill="#ffffff">8.52%</text>
<text text-anchor="middle" x="211.02" y="-900.5" font-family="Arial" font-size="10.00" fill="#ffffff">(5.31%)</text>
<text text-anchor="middle" x="211.02" y="-888.5" font-family="Arial" font-size="10.00" fill="#ffffff">6346078×</text>
</g>
<!-- 4&#45;&gt;17 -->
<g id="edge7" class="edge">
<title>4&#45;&gt;17</title>
<path fill="none" stroke="#0d337e" stroke-width="0.5" d="M214.89,-979.88C214.67,-976.88 214.46,-973.88 214.27,-971 213.67,-961.71 213.09,-951.6 212.59,-942.38"/>
<polygon fill="#0d337e" stroke="#0d337e" stroke-width="0.5" points="213.83,-942.67 212.42,-939.24 211.39,-942.8 213.83,-942.67"/>
<text text-anchor="middle" x="235.65" y="-961.5" font-family="Arial" font-size="10.00" fill="#0d337e">8.52%</text>
<text text-anchor="middle" x="235.65" y="-949.5" font-family="Arial" font-size="10.00" fill="#0d337e">6346078×</text>
</g>
<!-- 20 -->
<g id="node9" class="node">
<title>20</title>
<polygon fill="#0d1d78" stroke="#0d1d78" points="185.02,-742 121.02,-742 121.02,-686 185.02,-686 185.02,-742"/>
<text text-anchor="middle" x="153.02" y="-728.5" font-family="Arial" font-size="10.00" fill="#ffffff">tableGet</text>
<text text-anchor="middle" x="153.02" y="-716.5" font-family="Arial" font-size="10.00" fill="#ffffff">3.82%</text>
<text text-anchor="middle" x="153.02" y="-704.5" font-family="Arial" font-size="10.00" fill="#ffffff">(0.44%)</text>
<text text-anchor="middle" x="153.02" y="-692.5" font-family="Arial" font-size="10.00" fill="#ffffff">44444497×</text>
</g>
<!-- 4&#45;&gt;20 -->
<g id="edge8" class="edge">
<title>4&#45;&gt;20</title>
<path fill="none" stroke="#0d1676" stroke-width="0.5" d="M189.32,-1007.62C143.32,-1006.89 53.08,-997.56 21.02,-938 -19.34,-862.99 1.42,-809.83 63.02,-751 77.73,-736.95 98.61,-728.15 116.56,-722.76"/>
<polygon fill="#0d1676" stroke="#0d1676" stroke-width="0.5" points="116.83,-723.96 119.85,-721.81 116.15,-721.61 116.83,-723.96"/>
<text text-anchor="middle" x="25.47" y="-863.5" font-family="Arial" font-size="10.00" fill="#0d1676">2.18%</text>
<text text-anchor="middle" x="25.47" y="-851.5" font-family="Arial" font-size="10.00" fill="#0d1676">25406263×</text>
</g>
<!-- 21 -->
<g id="node10" class="node">
<title>21</title>
<polygon fill="#0d1e78" stroke="#0d1e78" points="277.65,-840 208.4,-840 208.4,-784 277.65,-784 277.65,-840"/>
<text text-anchor="middle" x="243.02" y="-826.5" font-family="Arial" font-size="10.00" fill="#ffffff">peek</text>
<text text-anchor="middle" x="243.02" y="-814.5" font-family="Arial" font-size="10.00" fill="#ffffff">3.98%</text>
<text text-anchor="middle" x="243.02" y="-802.5" font-family="Arial" font-size="10.00" fill="#ffffff">(3.98%)</text>
<text text-anchor="middle" x="243.02" y="-790.5" font-family="Arial" font-size="10.00" fill="#ffffff">193511938×</text>
</g>
<!-- 4&#45;&gt;21 -->
<g id="edge9" class="edge">
<title>4&#45;&gt;21</title>
<path fill="none" stroke="#0d1d78" stroke-width="0.5" d="M244.83,-986.05C248.98,-981.57 252.65,-976.51 255.02,-971 276.45,-921.19 263.71,-902.52 255.02,-849 254.78,-847.48 254.47,-845.94 254.13,-844.39"/>
<polygon fill="#0d1d78" stroke="#0d1d78" stroke-width="0.5" points="255.33,-844.13 253.31,-841.02 252.95,-844.71 255.33,-844.13"/>
<text text-anchor="middle" x="293.4" y="-912.5" font-family="Arial" font-size="10.00" fill="#0d1d78">3.85%</text>
<text text-anchor="middle" x="293.4" y="-900.5" font-family="Arial" font-size="10.00" fill="#0d1d78">187165856×</text>
</g>
<!-- 23 -->
<g id="node11" class="node">
<title>23</title>
<polygon fill="#0d1676" stroke="#0d1676" points="94.65,-938 25.4,-938 25.4,-882 94.65,-882 94.65,-938"/>
<text text-anchor="middle" x="60.02" y="-924.5" font-family="Arial" font-size="10.00" fill="#ffffff">push</text>
<text text-anchor="middle" x="60.02" y="-912.5" font-family="Arial" font-size="10.00" fill="#ffffff">2.21%</text>
<text text-anchor="middle" x="60.02" y="-900.5" font-family="Arial" font-size="10.00" fill="#ffffff">(2.21%)</text>
<text text-anchor="middle" x="60.02" y="-888.5" font-family="Arial" font-size="10.00" fill="#ffffff">209399137×</text>
</g>
<!-- 4&#45;&gt;23 -->
<g id="edge10" class="edge">
<title>4&#45;&gt;23</title>
<path fill="none" stroke="#0d1676" stroke-width="0.5" d="M189.23,-1005.4C161.49,-1002.47 119.04,-994.21 90.77,-971 81.67,-963.52 74.97,-952.65 70.19,-942.21"/>
<polygon fill="#0d1676" stroke="#0d1676" stroke-width="0.5" points="71.35,-941.8 68.82,-939.09 69.11,-942.78 71.35,-941.8"/>
<text text-anchor="middle" x="117.4" y="-961.5" font-family="Arial" font-size="10.00" fill="#0d1676">2.21%</text>
<text text-anchor="middle" x="117.4" y="-949.5" font-family="Arial" font-size="10.00" fill="#0d1676">209399017×</text>
</g>
<!-- 25 -->
<g id="node12" class="node">
<title>25</title>
<polygon fill="#0d1274" stroke="#0d1274" points="172.65,-938 103.4,-938 103.4,-882 172.65,-882 172.65,-938"/>
<text text-anchor="middle" x="138.02" y="-924.5" font-family="Arial" font-size="10.00" fill="#ffffff">pop</text>
<text text-anchor="middle" x="138.02" y="-912.5" font-family="Arial" font-size="10.00" fill="#ffffff">1.33%</text>
<text text-anchor="middle" x="138.02" y="-900.5" font-family="Arial" font-size="10.00" fill="#ffffff">(1.33%)</text>
<text text-anchor="middle" x="138.02" y="-888.5" font-family="Arial" font-size="10.00" fill="#ffffff">184014823×</text>
</g>
<!-- 4&#45;&gt;25 -->
<g id="edge11" class="edge">
<title>4&#45;&gt;25</title>
<path fill="none" stroke="#0d1274" stroke-width="0.5" d="M189.23,-995.34C178.11,-989.47 166.01,-981.37 157.77,-971 151.21,-962.74 146.79,-952.21 143.83,-942.29"/>
<polygon fill="#0d1274" stroke="#0d1274" stroke-width="0.5" points="145.06,-942.14 142.93,-939.1 142.7,-942.8 145.06,-942.14"/>
<text text-anchor="middle" x="184.4" y="-961.5" font-family="Arial" font-size="10.00" fill="#0d1274">1.33%</text>
<text text-anchor="middle" x="184.4" y="-949.5" font-family="Arial" font-size="10.00" fill="#0d1274">184014704×</text>
</g>
<!-- 7 -->
<g id="node13" class="node">
<title>7</title>
<polygon fill="#0c9885" stroke="#0c9885" points="658.65,-742 577.4,-742 577.4,-686 658.65,-686 658.65,-742"/>
<text text-anchor="middle" x="618.02" y="-728.5" font-family="Arial" font-size="10.00" fill="#ffffff">adjustCapacity</text>
<text text-anchor="middle" x="618.02" y="-716.5" font-family="Arial" font-size="10.00" fill="#ffffff">28.38%</text>
<text text-anchor="middle" x="618.02" y="-704.5" font-family="Arial" font-size="10.00" fill="#ffffff">(4.87%)</text>
<text text-anchor="middle" x="618.02" y="-692.5" font-family="Arial" font-size="10.00" fill="#ffffff">6346084×</text>
</g>
<!-- 5&#45;&gt;7 -->
<g id="edge12" class="edge">
<title>5&#45;&gt;7</title>
<path fill="none" stroke="#0c9885" stroke-width="1.14" d="M549.28,-783.75C560.73,-772.3 574.13,-758.89 586.04,-746.98"/>
<polygon fill="#0c9885" stroke="#0c9885" stroke-width="1.14" points="587.05,-748.6 589.48,-743.54 584.42,-745.98 587.05,-748.6"/>
<text text-anchor="middle" x="602.82" y="-765.5" font-family="Arial" font-size="10.00" fill="#0c9885">28.38%</text>
<text text-anchor="middle" x="602.82" y="-753.5" font-family="Arial" font-size="10.00" fill="#0c9885">6346084×</text>
</g>
<!-- 19 -->
<g id="node14" class="node">
<title>19</title>
<polygon fill="#0d247a" stroke="#0d247a" points="465.02,-644 401.02,-644 401.02,-588 465.02,-588 465.02,-644"/>
<text text-anchor="middle" x="433.02" y="-630.5" font-family="Arial" font-size="10.00" fill="#ffffff">findEntry</text>
<text text-anchor="middle" x="433.02" y="-618.5" font-family="Arial" font-size="10.00" fill="#ffffff">5.31%</text>
<text text-anchor="middle" x="433.02" y="-606.5" font-family="Arial" font-size="10.00" fill="#ffffff">(5.31%)</text>
<text text-anchor="middle" x="433.02" y="-594.5" font-family="Arial" font-size="10.00" fill="#ffffff">69828908×</text>
</g>
<!-- 5&#45;&gt;19 -->
<g id="edge13" class="edge">
<title>5&#45;&gt;19</title>
<path fill="none" stroke="#0d1575" stroke-width="0.5" d="M490.62,-783.79C478.18,-773.29 463.62,-761.34 450.02,-751 444.43,-746.75 440.38,-748.17 437.02,-742 421.4,-713.31 422.76,-675.17 426.53,-648.59"/>
<polygon fill="#0d1575" stroke="#0d1575" stroke-width="0.5" points="427.74,-648.82 427.05,-645.18 425.32,-648.46 427.74,-648.82"/>
<text text-anchor="middle" x="461.02" y="-716.5" font-family="Arial" font-size="10.00" fill="#0d1575">1.93%</text>
<text text-anchor="middle" x="461.02" y="-704.5" font-family="Arial" font-size="10.00" fill="#0d1575">25384387×</text>
</g>
<!-- 12&#45;&gt;20 -->
<g id="edge23" class="edge">
<title>12&#45;&gt;20</title>
<path fill="none" stroke="#0d0f73" stroke-width="0.5" d="M327.21,-881.99C315.87,-870.17 303.87,-855.47 296.27,-840 278.51,-803.84 306.25,-780.7 279.02,-751 278.82,-750.78 226.55,-735.89 189.4,-725.33"/>
<polygon fill="#0d0f73" stroke="#0d0f73" stroke-width="0.5" points="189.83,-724.18 186.13,-724.4 189.16,-726.54 189.83,-724.18"/>
<text text-anchor="middle" x="317.65" y="-814.5" font-family="Arial" font-size="10.00" fill="#0d0f73">0.55%</text>
<text text-anchor="middle" x="317.65" y="-802.5" font-family="Arial" font-size="10.00" fill="#0d0f73">6346078×</text>
</g>
<!-- 14 -->
<g id="node23" class="node">
<title>14</title>
<polygon fill="#0d4682" stroke="#0d4682" points="480.77,-840 409.27,-840 409.27,-784 480.77,-784 480.77,-840"/>
<text text-anchor="middle" x="445.02" y="-826.5" font-family="Arial" font-size="10.00" fill="#ffffff">newInstance</text>
<text text-anchor="middle" x="445.02" y="-814.5" font-family="Arial" font-size="10.00" fill="#ffffff">12.20%</text>
<text text-anchor="middle" x="445.02" y="-802.5" font-family="Arial" font-size="10.00" fill="#ffffff">(0.00%)</text>
<text text-anchor="middle" x="445.02" y="-790.5" font-family="Arial" font-size="10.00" fill="#ffffff">6346078×</text>
</g>
<!-- 12&#45;&gt;14 -->
<g id="edge22" class="edge">
<title>12&#45;&gt;14</title>
<path fill="none" stroke="#0d4682" stroke-width="0.5" d="M382,-881.75C392.97,-869.79 405.88,-855.7 417.15,-843.41"/>
<polygon fill="#0d4682" stroke="#0d4682" stroke-width="0.5" points="418,-844.29 419.47,-840.88 416.2,-842.63 418,-844.29"/>
<text text-anchor="middle" x="432.87" y="-863.5" font-family="Arial" font-size="10.00" fill="#0d4682">12.20%</text>
<text text-anchor="middle" x="432.87" y="-851.5" font-family="Arial" font-size="10.00" fill="#0d4682">6346078×</text>
</g>
<!-- 24 -->
<g id="node24" class="node">
<title>24</title>
<polygon fill="#0d1676" stroke="#0d1676" points="316.02,-742 252.02,-742 252.02,-686 316.02,-686 316.02,-742"/>
<text text-anchor="middle" x="284.02" y="-728.5" font-family="Arial" font-size="10.00" fill="#ffffff">call</text>
<text text-anchor="middle" x="284.02" y="-716.5" font-family="Arial" font-size="10.00" fill="#ffffff">2.21%</text>
<text text-anchor="middle" x="284.02" y="-704.5" font-family="Arial" font-size="10.00" fill="#ffffff">(2.21%)</text>
<text text-anchor="middle" x="284.02" y="-692.5" font-family="Arial" font-size="10.00" fill="#ffffff">12692157×</text>
</g>
<!-- 12&#45;&gt;24 -->
<g id="edge24" class="edge">
<title>12&#45;&gt;24</title>
<path fill="none" stroke="#0d1174" stroke-width="0.5" d="M357.82,-881.52C357.6,-855.39 354.68,-815.52 341.02,-784 334.98,-770.06 325.24,-756.7 315.5,-745.51"/>
<polygon fill="#0d1174" stroke="#0d1174" stroke-width="0.5" points="316.5,-744.78 313.26,-742.98 314.66,-746.41 316.5,-744.78"/>
<text text-anchor="middle" x="376.44" y="-814.5" font-family="Arial" font-size="10.00" fill="#0d1174">1.11%</text>
<text text-anchor="middle" x="376.44" y="-802.5" font-family="Arial" font-size="10.00" fill="#0d1174">6346078×</text>
</g>
<!-- 17&#45;&gt;20 -->
<g id="edge29" class="edge">
<title>17&#45;&gt;20</title>
<path fill="none" stroke="#0d0f73" stroke-width="0.5" d="M181.37,-884.58C179.92,-883.67 178.47,-882.81 177.02,-882 152.73,-868.51 75.28,-862.71 59.27,-840 44.93,-819.66 48.04,-806.21 59.27,-784 71.34,-760.13 95.99,-742.5 116.98,-731.04"/>
<polygon fill="#0d0f73" stroke="#0d0f73" stroke-width="0.5" points="117.41,-732.2 119.92,-729.47 116.25,-730.04 117.41,-732.2"/>
<text text-anchor="middle" x="80.65" y="-814.5" font-family="Arial" font-size="10.00" fill="#0d0f73">0.55%</text>
<text text-anchor="middle" x="80.65" y="-802.5" font-family="Arial" font-size="10.00" fill="#0d0f73">6346078×</text>
</g>
<!-- 17&#45;&gt;21 -->
<g id="edge30" class="edge">
<title>17&#45;&gt;21</title>
<path fill="none" stroke="#0d0d73" stroke-width="0.5" d="M209.01,-881.68C209.13,-871.17 210.37,-859.24 214.27,-849 214.95,-847.22 215.75,-845.47 216.64,-843.74"/>
<polygon fill="#0d0d73" stroke="#0d0d73" stroke-width="0.5" points="217.58,-844.57 218.22,-840.91 215.44,-843.37 217.58,-844.57"/>
<text text-anchor="middle" x="235.65" y="-863.5" font-family="Arial" font-size="10.00" fill="#0d0d73">0.13%</text>
<text text-anchor="middle" x="235.65" y="-851.5" font-family="Arial" font-size="10.00" fill="#0d0d73">6346078×</text>
</g>
<!-- 22 -->
<g id="node29" class="node">
<title>22</title>
<polygon fill="#0d1776" stroke="#0d1776" points="199.27,-840 106.77,-840 106.77,-784 199.27,-784 199.27,-840"/>
<text text-anchor="middle" x="153.02" y="-826.5" font-family="Arial" font-size="10.00" fill="#ffffff">invokeFromClass</text>
<text text-anchor="middle" x="153.02" y="-814.5" font-family="Arial" font-size="10.00" fill="#ffffff">2.54%</text>
<text text-anchor="middle" x="153.02" y="-802.5" font-family="Arial" font-size="10.00" fill="#ffffff">(0.88%)</text>
<text text-anchor="middle" x="153.02" y="-790.5" font-family="Arial" font-size="10.00" fill="#ffffff">6346078×</text>
</g>
<!-- 17&#45;&gt;22 -->
<g id="edge31" class="edge">
<title>17&#45;&gt;22</title>
<path fill="none" stroke="#0d1776" stroke-width="0.5" d="M181.43,-885.34C179.95,-884.2 178.47,-883.08 177.02,-882 171.47,-877.84 168.02,-878.84 164.27,-873 158.86,-864.57 155.91,-854.19 154.35,-844.45"/>
<polygon fill="#0d1776" stroke="#0d1776" stroke-width="0.5" points="155.57,-844.36 153.86,-841.07 153.14,-844.7 155.57,-844.36"/>
<text text-anchor="middle" x="185.65" y="-863.5" font-family="Arial" font-size="10.00" fill="#0d1776">2.54%</text>
<text text-anchor="middle" x="185.65" y="-851.5" font-family="Arial" font-size="10.00" fill="#0d1776">6346078×</text>
</g>
<!-- 20&#45;&gt;19 -->
<g id="edge32" class="edge">
<title>20&#45;&gt;19</title>
<path fill="none" stroke="#0d1b77" stroke-width="0.5" d="M185.42,-701.89C238.13,-683.82 342.11,-648.17 397.05,-629.33"/>
<polygon fill="#0d1b77" stroke="#0d1b77" stroke-width="0.5" points="397.29,-630.55 400.2,-628.25 396.5,-628.23 397.29,-630.55"/>
<text text-anchor="middle" x="350.34" y="-667.5" font-family="Arial" font-size="10.00" fill="#0d1b77">3.38%</text>
<text text-anchor="middle" x="350.34" y="-655.5" font-family="Arial" font-size="10.00" fill="#0d1b77">44444497×</text>
</g>
<!-- 29 -->
<g id="node15" class="node">
<title>29</title>
<polygon fill="#0ba163" stroke="#0ba163" points="591.02,-644 527.02,-644 527.02,-588 591.02,-588 591.02,-644"/>
<text text-anchor="middle" x="559.02" y="-630.5" font-family="Arial" font-size="10.00" fill="#ffffff">reallocate</text>
<text text-anchor="middle" x="559.02" y="-618.5" font-family="Arial" font-size="10.00" fill="#ffffff">35.40%</text>
<text text-anchor="middle" x="559.02" y="-606.5" font-family="Arial" font-size="10.00" fill="#ffffff">(0.88%)</text>
<text text-anchor="middle" x="559.02" y="-594.5" font-family="Arial" font-size="10.00" fill="#ffffff">31730564×</text>
</g>
<!-- 7&#45;&gt;29 -->
<g id="edge14" class="edge">
<title>7&#45;&gt;29</title>
<path fill="none" stroke="#0c8a91" stroke-width="0.94" d="M608.45,-685.74C604.15,-675.12 598.57,-663.1 592.02,-653 591.17,-651.69 590.28,-650.39 589.35,-649.09"/>
<polygon fill="#0c8a91" stroke="#0c8a91" stroke-width="0.94" points="590.69,-648.08 586.45,-645.28 588.02,-650.12 590.69,-648.08"/>
<text text-anchor="middle" x="628.61" y="-667.5" font-family="Arial" font-size="10.00" fill="#0c8a91">23.52%</text>
<text text-anchor="middle" x="628.61" y="-655.5" font-family="Arial" font-size="10.00" fill="#0c8a91">12692168×</text>
</g>
<!-- 8 -->
<g id="node16" class="node">
<title>8</title>
<polygon fill="#0ba068" stroke="#0ba068" points="564.65,-546 483.4,-546 483.4,-490 564.65,-490 564.65,-546"/>
<text text-anchor="middle" x="524.02" y="-532.5" font-family="Arial" font-size="10.00" fill="#ffffff">collectGarbage</text>
<text text-anchor="middle" x="524.02" y="-520.5" font-family="Arial" font-size="10.00" fill="#ffffff">34.51%</text>
<text text-anchor="middle" x="524.02" y="-508.5" font-family="Arial" font-size="10.00" fill="#ffffff">(0.00%)</text>
<text text-anchor="middle" x="524.02" y="-496.5" font-family="Arial" font-size="10.00" fill="#ffffff">179×</text>
</g>
<!-- 29&#45;&gt;8 -->
<g id="edge37" class="edge">
<title>29&#45;&gt;8</title>
<path fill="none" stroke="#0ba068" stroke-width="1.38" d="M542.97,-587.84C541.53,-584.91 540.18,-581.93 539.02,-579 535.88,-571.05 533.24,-562.24 531.1,-553.87"/>
<polygon fill="#0ba068" stroke="#0ba068" stroke-width="1.38" points="533.17,-553.63 529.76,-548.38 529.15,-554.6 533.17,-553.63"/>
<text text-anchor="middle" x="555.52" y="-569.5" font-family="Arial" font-size="10.00" fill="#0ba068">34.51%</text>
<text text-anchor="middle" x="555.52" y="-557.5" font-family="Arial" font-size="10.00" fill="#0ba068">179×</text>
</g>
<!-- 9 -->
<g id="node17" class="node">
<title>9</title>
<polygon fill="#0c788e" stroke="#0c788e" points="489.02,-448 401.02,-448 401.02,-392 489.02,-392 489.02,-448"/>
<text text-anchor="middle" x="445.02" y="-434.5" font-family="Arial" font-size="10.00" fill="#ffffff">traceReferences</text>
<text text-anchor="middle" x="445.02" y="-422.5" font-family="Arial" font-size="10.00" fill="#ffffff">20.80%</text>
<text text-anchor="middle" x="445.02" y="-410.5" font-family="Arial" font-size="10.00" fill="#ffffff">(0.88%)</text>
<text text-anchor="middle" x="445.02" y="-398.5" font-family="Arial" font-size="10.00" fill="#ffffff">179×</text>
</g>
<!-- 8&#45;&gt;9 -->
<g id="edge15" class="edge">
<title>8&#45;&gt;9</title>
<path fill="none" stroke="#0c788e" stroke-width="0.83" d="M497.7,-489.78C495.06,-486.85 492.46,-483.89 490.02,-481 482.52,-472.1 474.78,-462.1 467.87,-452.86"/>
<polygon fill="#0c788e" stroke="#0c788e" stroke-width="0.83" points="469.33,-452.13 465.3,-449.39 466.75,-454.05 469.33,-452.13"/>
<text text-anchor="middle" x="506.52" y="-471.5" font-family="Arial" font-size="10.00" fill="#0c788e">20.80%</text>
<text text-anchor="middle" x="506.52" y="-459.5" font-family="Arial" font-size="10.00" fill="#0c788e">179×</text>
</g>
<!-- 13 -->
<g id="node18" class="node">
<title>13</title>
<polygon fill="#0d4e84" stroke="#0d4e84" points="553.52,-448 498.52,-448 498.52,-392 553.52,-392 553.52,-448"/>
<text text-anchor="middle" x="526.02" y="-434.5" font-family="Arial" font-size="10.00" fill="#ffffff">sweep</text>
<text text-anchor="middle" x="526.02" y="-422.5" font-family="Arial" font-size="10.00" fill="#ffffff">13.71%</text>
<text text-anchor="middle" x="526.02" y="-410.5" font-family="Arial" font-size="10.00" fill="#ffffff">(12.83%)</text>
<text text-anchor="middle" x="526.02" y="-398.5" font-family="Arial" font-size="10.00" fill="#ffffff">179×</text>
</g>
<!-- 8&#45;&gt;13 -->
<g id="edge16" class="edge">
<title>8&#45;&gt;13</title>
<path fill="none" stroke="#0d4e84" stroke-width="0.55" d="M524.59,-489.75C524.83,-478.19 525.11,-464.66 525.36,-452.66"/>
<polygon fill="#0d4e84" stroke="#0d4e84" stroke-width="0.55" points="526.65,-452.88 525.44,-449.15 524.06,-452.83 526.65,-452.88"/>
<text text-anchor="middle" x="541.76" y="-471.5" font-family="Arial" font-size="10.00" fill="#0d4e84">13.71%</text>
<text text-anchor="middle" x="541.76" y="-459.5" font-family="Arial" font-size="10.00" fill="#0d4e84">179×</text>
</g>
<!-- 10 -->
<g id="node19" class="node">
<title>10</title>
<polygon fill="#0c738d" stroke="#0c738d" points="373.15,-350 294.9,-350 294.9,-294 373.15,-294 373.15,-350"/>
<text text-anchor="middle" x="334.02" y="-336.5" font-family="Arial" font-size="10.00" fill="#ffffff">blackenObject</text>
<text text-anchor="middle" x="334.02" y="-324.5" font-family="Arial" font-size="10.00" fill="#ffffff">19.91%</text>
<text text-anchor="middle" x="334.02" y="-312.5" font-family="Arial" font-size="10.00" fill="#ffffff">(1.33%)</text>
<text text-anchor="middle" x="334.02" y="-300.5" font-family="Arial" font-size="10.00" fill="#ffffff">6372355×</text>
</g>
<!-- 9&#45;&gt;10 -->
<g id="edge17" class="edge">
<title>9&#45;&gt;10</title>
<path fill="none" stroke="#0c738d" stroke-width="0.8" d="M413.51,-391.75C399.92,-379.99 383.95,-366.18 369.9,-354.03"/>
<polygon fill="#0c738d" stroke="#0c738d" stroke-width="0.8" points="370.96,-352.87 366.53,-351.11 368.9,-355.25 370.96,-352.87"/>
<text text-anchor="middle" x="424.1" y="-373.5" font-family="Arial" font-size="10.00" fill="#0c738d">19.91%</text>
<text text-anchor="middle" x="424.1" y="-361.5" font-family="Arial" font-size="10.00" fill="#0c738d">6372355×</text>
</g>
<!-- 85 -->
<g id="node25" class="node">
<title>85</title>
<polygon fill="#0d1174" stroke="#0d1174" points="582.52,-350 521.52,-350 521.52,-294 582.52,-294 582.52,-350"/>
<text text-anchor="middle" x="552.02" y="-336.5" font-family="Arial" font-size="10.00" fill="#ffffff">freeObject</text>
<text text-anchor="middle" x="552.02" y="-324.5" font-family="Arial" font-size="10.00" fill="#ffffff">1.00%</text>
<text text-anchor="middle" x="552.02" y="-312.5" font-family="Arial" font-size="10.00" fill="#ffffff">(0.00%)</text>
<text text-anchor="middle" x="552.02" y="-300.5" font-family="Arial" font-size="10.00" fill="#ffffff">6346109×</text>
</g>
<!-- 13&#45;&gt;85 -->
<g id="edge25" class="edge">
<title>13&#45;&gt;85</title>
<path fill="none" stroke="#0d1074" stroke-width="0.5" d="M524.61,-391.59C524.82,-381.18 525.97,-369.34 529.27,-359 529.8,-357.34 530.43,-355.67 531.13,-354.02"/>
<polygon fill="#0d1074" stroke="#0d1074" stroke-width="0.5" points="532.22,-354.59 532.57,-350.9 529.99,-353.56 532.22,-354.59"/>
<text text-anchor="middle" x="550.65" y="-373.5" font-family="Arial" font-size="10.00" fill="#0d1074">0.88%</text>
<text text-anchor="middle" x="550.65" y="-361.5" font-family="Arial" font-size="10.00" fill="#0d1074">6280544×</text>
</g>
<!-- 11 -->
<g id="node20" class="node">
<title>11</title>
<polygon fill="#0c668a" stroke="#0c668a" points="302.52,-252 241.52,-252 241.52,-196 302.52,-196 302.52,-252"/>
<text text-anchor="middle" x="272.02" y="-238.5" font-family="Arial" font-size="10.00" fill="#ffffff">markTable</text>
<text text-anchor="middle" x="272.02" y="-226.5" font-family="Arial" font-size="10.00" fill="#ffffff">17.88%</text>
<text text-anchor="middle" x="272.02" y="-214.5" font-family="Arial" font-size="10.00" fill="#ffffff">(11.06%)</text>
<text text-anchor="middle" x="272.02" y="-202.5" font-family="Arial" font-size="10.00" fill="#ffffff">6367164×</text>
</g>
<!-- 10&#45;&gt;11 -->
<g id="edge18" class="edge">
<title>10&#45;&gt;11</title>
<path fill="none" stroke="#0c668a" stroke-width="0.71" d="M294.84,-297.29C290.82,-293.58 287.16,-289.48 284.27,-285 279.02,-276.86 275.96,-266.91 274.19,-257.47"/>
<polygon fill="#0c668a" stroke="#0c668a" stroke-width="0.71" points="275.64,-257.26 273.51,-253.36 272.74,-257.74 275.64,-257.26"/>
<text text-anchor="middle" x="305.65" y="-275.5" font-family="Arial" font-size="10.00" fill="#0c668a">17.87%</text>
<text text-anchor="middle" x="305.65" y="-263.5" font-family="Arial" font-size="10.00" fill="#0c668a">6366985×</text>
</g>
<!-- 18 -->
<g id="node21" class="node">
<title>18</title>
<polygon fill="#0d2c7c" stroke="#0d2c7c" points="314.15,-56 247.9,-56 247.9,0 314.15,0 314.15,-56"/>
<text text-anchor="middle" x="281.02" y="-42.5" font-family="Arial" font-size="10.00" fill="#ffffff">markObject</text>
<text text-anchor="middle" x="281.02" y="-30.5" font-family="Arial" font-size="10.00" fill="#ffffff">7.08%</text>
<text text-anchor="middle" x="281.02" y="-18.5" font-family="Arial" font-size="10.00" fill="#ffffff">(7.08%)</text>
<text text-anchor="middle" x="281.02" y="-6.5" font-family="Arial" font-size="10.00" fill="#ffffff">63689713×</text>
</g>
<!-- 10&#45;&gt;18 -->
<g id="edge19" class="edge">
<title>10&#45;&gt;18</title>
<path fill="none" stroke="#0d1074" stroke-width="0.5" d="M334.32,-293.86C334.83,-232.15 334.97,-85.07 325.02,-65 322.97,-60.85 320.19,-57.02 317.02,-53.52"/>
<polygon fill="#0d1074" stroke="#0d1074" stroke-width="0.5" points="318.11,-52.89 314.8,-51.21 316.34,-54.58 318.11,-52.89"/>
<text text-anchor="middle" x="355.41" y="-177.5" font-family="Arial" font-size="10.00" fill="#0d1074">0.71%</text>
<text text-anchor="middle" x="355.41" y="-165.5" font-family="Arial" font-size="10.00" fill="#0d1074">6368059×</text>
</g>
<!-- 11&#45;&gt;18 -->
<g id="edge20" class="edge">
<title>11&#45;&gt;18</title>
<path fill="none" stroke="#0d257a" stroke-width="0.5" d="M241.11,-202.25C225.96,-190.16 209.25,-173.47 201.02,-154 191.33,-131.07 190.66,-120.63 201.02,-98 210.05,-78.3 227.77,-62.09 244.25,-50.34"/>
<polygon fill="#0d257a" stroke="#0d257a" stroke-width="0.5" points="244.74,-51.5 246.91,-48.49 243.34,-49.49 244.74,-51.5"/>
<text text-anchor="middle" x="225.02" y="-128.5" font-family="Arial" font-size="10.00" fill="#0d257a">5.66%</text>
<text text-anchor="middle" x="225.02" y="-116.5" font-family="Arial" font-size="10.00" fill="#0d257a">50937312×</text>
</g>
<!-- 26 -->
<g id="node22" class="node">
<title>26</title>
<polygon fill="#0d1274" stroke="#0d1274" points="317.02,-154 253.02,-154 253.02,-98 317.02,-98 317.02,-154"/>
<text text-anchor="middle" x="285.02" y="-140.5" font-family="Arial" font-size="10.00" fill="#ffffff">markValue</text>
<text text-anchor="middle" x="285.02" y="-128.5" font-family="Arial" font-size="10.00" fill="#ffffff">1.15%</text>
<text text-anchor="middle" x="285.02" y="-116.5" font-family="Arial" font-size="10.00" fill="#ffffff">(0.44%)</text>
<text text-anchor="middle" x="285.02" y="-104.5" font-family="Arial" font-size="10.00" fill="#ffffff">50962157×</text>
</g>
<!-- 11&#45;&gt;26 -->
<g id="edge21" class="edge">
<title>11&#45;&gt;26</title>
<path fill="none" stroke="#0d1274" stroke-width="0.5" d="M272.12,-195.69C272.49,-185.39 273.31,-173.6 275.02,-163 275.26,-161.5 275.55,-159.98 275.86,-158.45"/>
<polygon fill="#0d1274" stroke="#0d1274" stroke-width="0.5" points="277.03,-158.8 276.58,-155.12 274.64,-158.28 277.03,-158.8"/>
<text text-anchor="middle" x="299.02" y="-177.5" font-family="Arial" font-size="10.00" fill="#0d1274">1.15%</text>
<text text-anchor="middle" x="299.02" y="-165.5" font-family="Arial" font-size="10.00" fill="#0d1274">50937312×</text>
</g>
<!-- 26&#45;&gt;18 -->
<g id="edge35" class="edge">
<title>26&#45;&gt;18</title>
<path fill="none" stroke="#0d1074" stroke-width="0.5" d="M283.89,-97.75C283.4,-86.09 282.83,-72.42 282.33,-60.35"/>
<polygon fill="#0d1074" stroke="#0d1074" stroke-width="0.5" points="283.56,-60.52 282.19,-57.08 281.11,-60.63 283.56,-60.52"/>
<text text-anchor="middle" x="304.87" y="-79.5" font-family="Arial" font-size="10.00" fill="#0d1074">0.71%</text>
<text text-anchor="middle" x="304.87" y="-67.5" font-family="Arial" font-size="10.00" fill="#0d1074">6382376×</text>
</g>
<!-- 15 -->
<g id="node26" class="node">
<title>15</title>
<polygon fill="#0d4482" stroke="#0d4482" points="568.15,-742 489.9,-742 489.9,-686 568.15,-686 568.15,-742"/>
<text text-anchor="middle" x="529.02" y="-728.5" font-family="Arial" font-size="10.00" fill="#ffffff">allocateObject</text>
<text text-anchor="middle" x="529.02" y="-716.5" font-family="Arial" font-size="10.00" fill="#ffffff">11.76%</text>
<text text-anchor="middle" x="529.02" y="-704.5" font-family="Arial" font-size="10.00" fill="#ffffff">(0.00%)</text>
<text text-anchor="middle" x="529.02" y="-692.5" font-family="Arial" font-size="10.00" fill="#ffffff">6346109×</text>
</g>
<!-- 14&#45;&gt;15 -->
<g id="edge26" class="edge">
<title>14&#45;&gt;15</title>
<path fill="none" stroke="#0d4482" stroke-width="0.5" d="M468.87,-783.75C479.33,-771.79 491.66,-757.7 502.42,-745.41"/>
<polygon fill="#0d4482" stroke="#0d4482" stroke-width="0.5" points="503.24,-746.33 504.62,-742.89 501.39,-744.72 503.24,-746.33"/>
<text text-anchor="middle" x="518.39" y="-765.5" font-family="Arial" font-size="10.00" fill="#0d4482">11.76%</text>
<text text-anchor="middle" x="518.39" y="-753.5" font-family="Arial" font-size="10.00" fill="#0d4482">6346078×</text>
</g>
<!-- 28 -->
<g id="node27" class="node">
<title>28</title>
<polygon fill="#0d1074" stroke="#0d1074" points="450.02,-154 386.02,-154 386.02,-98 450.02,-98 450.02,-154"/>
<text text-anchor="middle" x="418.02" y="-140.5" font-family="Arial" font-size="10.00" fill="#ffffff">initTable</text>
<text text-anchor="middle" x="418.02" y="-128.5" font-family="Arial" font-size="10.00" fill="#ffffff">0.88%</text>
<text text-anchor="middle" x="418.02" y="-116.5" font-family="Arial" font-size="10.00" fill="#ffffff">(0.88%)</text>
<text text-anchor="middle" x="418.02" y="-104.5" font-family="Arial" font-size="10.00" fill="#ffffff">12692162×</text>
</g>
<!-- 14&#45;&gt;28 -->
<g id="edge27" class="edge">
<title>14&#45;&gt;28</title>
<path fill="none" stroke="#0d0f73" stroke-width="0.5" d="M417.72,-783.75C402.68,-765.8 387.02,-740.9 387.02,-715 387.02,-715 387.02,-715 387.02,-223 387.02,-200.51 394.83,-176.42 402.6,-158"/>
<polygon fill="#0d0f73" stroke="#0d0f73" stroke-width="0.5" points="403.6,-158.79 403.86,-155.09 401.35,-157.82 403.6,-158.79"/>
<text text-anchor="middle" x="408.4" y="-471.5" font-family="Arial" font-size="10.00" fill="#0d0f73">0.44%</text>
<text text-anchor="middle" x="408.4" y="-459.5" font-family="Arial" font-size="10.00" fill="#0d0f73">6346078×</text>
</g>
<!-- 85&#45;&gt;29 -->
<g id="edge41" class="edge">
<title>85&#45;&gt;29</title>
<path fill="none" stroke="#0d0d73" stroke-width="0.5" d="M567.31,-350.42C568.41,-353.26 569.35,-356.14 570.02,-359 592.49,-454.16 584.47,-482.3 570.02,-579 569.8,-580.51 569.52,-582.05 569.21,-583.59"/>
<polygon fill="#0d0d73" stroke="#0d0d73" stroke-width="0.5" points="568.02,-583.25 568.45,-586.94 570.41,-583.79 568.02,-583.25"/>
<text text-anchor="middle" x="605.4" y="-471.5" font-family="Arial" font-size="10.00" fill="#0d0d73">0.12%</text>
<text text-anchor="middle" x="605.4" y="-459.5" font-family="Arial" font-size="10.00" fill="#0d0d73">6346134×</text>
</g>
<!-- 27 -->
<g id="node30" class="node">
<title>27</title>
<polygon fill="#0d1074" stroke="#0d1074" points="520.4,-252 461.65,-252 461.65,-196 520.4,-196 520.4,-252"/>
<text text-anchor="middle" x="491.02" y="-238.5" font-family="Arial" font-size="10.00" fill="#ffffff">freeTable</text>
<text text-anchor="middle" x="491.02" y="-226.5" font-family="Arial" font-size="10.00" fill="#ffffff">0.88%</text>
<text text-anchor="middle" x="491.02" y="-214.5" font-family="Arial" font-size="10.00" fill="#ffffff">(0.44%)</text>
<text text-anchor="middle" x="491.02" y="-202.5" font-family="Arial" font-size="10.00" fill="#ffffff">6346081×</text>
</g>
<!-- 85&#45;&gt;27 -->
<g id="edge40" class="edge">
<title>85&#45;&gt;27</title>
<path fill="none" stroke="#0d1074" stroke-width="0.5" d="M534.71,-293.75C527.17,-281.89 518.31,-267.94 510.54,-255.72"/>
<polygon fill="#0d1074" stroke="#0d1074" stroke-width="0.5" points="511.7,-255.26 508.79,-252.96 509.63,-256.57 511.7,-255.26"/>
<text text-anchor="middle" x="550.15" y="-275.5" font-family="Arial" font-size="10.00" fill="#0d1074">0.88%</text>
<text text-anchor="middle" x="550.15" y="-263.5" font-family="Arial" font-size="10.00" fill="#0d1074">6346079×</text>
</g>
<!-- 15&#45;&gt;29 -->
<g id="edge28" class="edge">
<title>15&#45;&gt;29</title>
<path fill="none" stroke="#0d4482" stroke-width="0.5" d="M537.54,-685.75C541.18,-674.09 545.45,-660.42 549.23,-648.35"/>
<polygon fill="#0d4482" stroke="#0d4482" stroke-width="0.5" points="550.38,-648.75 550.26,-645.04 548.05,-648.02 550.38,-648.75"/>
<text text-anchor="middle" x="568.97" y="-667.5" font-family="Arial" font-size="10.00" fill="#0d4482">11.76%</text>
<text text-anchor="middle" x="568.97" y="-655.5" font-family="Arial" font-size="10.00" fill="#0d4482">6346109×</text>
</g>
<!-- 16 -->
<g id="node28" class="node">
<title>16</title>
<polygon fill="#0d357e" stroke="#0d357e" points="694.9,-1350 645.15,-1350 645.15,-1306 694.9,-1306 694.9,-1350"/>
<text text-anchor="middle" x="670.02" y="-1336.5" font-family="Arial" font-size="10.00" fill="#ffffff">_init</text>
<text text-anchor="middle" x="670.02" y="-1324.5" font-family="Arial" font-size="10.00" fill="#ffffff">8.85%</text>
<text text-anchor="middle" x="670.02" y="-1312.5" font-family="Arial" font-size="10.00" fill="#ffffff">(8.85%)</text>
</g>
<!-- 22&#45;&gt;20 -->
<g id="edge33" class="edge">
<title>22&#45;&gt;20</title>
<path fill="none" stroke="#0d0f73" stroke-width="0.5" d="M153.02,-783.75C153.02,-772.09 153.02,-758.42 153.02,-746.35"/>
<polygon fill="#0d0f73" stroke="#0d0f73" stroke-width="0.5" points="154.25,-746.58 153.02,-743.08 151.8,-746.58 154.25,-746.58"/>
<text text-anchor="middle" x="174.4" y="-765.5" font-family="Arial" font-size="10.00" fill="#0d0f73">0.55%</text>
<text text-anchor="middle" x="174.4" y="-753.5" font-family="Arial" font-size="10.00" fill="#0d0f73">6346078×</text>
</g>
<!-- 22&#45;&gt;24 -->
<g id="edge34" class="edge">
<title>22&#45;&gt;24</title>
<path fill="none" stroke="#0d1174" stroke-width="0.5" d="M190.21,-783.75C208.52,-770.33 230.48,-754.24 248.54,-741"/>
<polygon fill="#0d1174" stroke="#0d1174" stroke-width="0.5" points="248.93,-742.23 251.03,-739.18 247.48,-740.26 248.93,-742.23"/>
<text text-anchor="middle" x="255.48" y="-765.5" font-family="Arial" font-size="10.00" fill="#0d1174">1.11%</text>
<text text-anchor="middle" x="255.48" y="-753.5" font-family="Arial" font-size="10.00" fill="#0d1174">6346078×</text>
</g>
<!-- 27&#45;&gt;28 -->
<g id="edge36" class="edge">
<title>27&#45;&gt;28</title>
<path fill="none" stroke="#0d0f73" stroke-width="0.5" d="M470.3,-195.75C461.21,-183.79 450.5,-169.7 441.14,-157.41"/>
<polygon fill="#0d0f73" stroke="#0d0f73" stroke-width="0.5" points="442.35,-156.97 439.26,-154.92 440.4,-158.45 442.35,-156.97"/>
<text text-anchor="middle" x="484.58" y="-177.5" font-family="Arial" font-size="10.00" fill="#0d0f73">0.44%</text>
<text text-anchor="middle" x="484.58" y="-165.5" font-family="Arial" font-size="10.00" fill="#0d0f73">6346081×</text>
</g>
<!-- 31&#45;&gt;85 -->
<g id="edge39" class="edge">
<title>31&#45;&gt;85</title>
<path fill="none" stroke="#0d0d73" stroke-width="0.5" d="M673.29,-1044.86C674.99,-1022.19 677.02,-989.01 677.02,-960 677.02,-960 677.02,-960 677.02,-419 677.02,-373.33 623.88,-346.4 586.9,-333.19"/>
<polygon fill="#0d0d73" stroke="#0d0d73" stroke-width="0.5" points="587.34,-332.05 583.64,-332.05 586.54,-334.36 587.34,-332.05"/>
<text text-anchor="middle" x="693.15" y="-716.5" font-family="Arial" font-size="10.00" fill="#0d0d73">0.12%</text>
<text text-anchor="middle" x="693.15" y="-704.5" font-family="Arial" font-size="10.00" fill="#0d0d73">65565×</text>
</g>
</g>
</svg>
